<?xml version="1.0" standalone="no"?>
<!DOCTYPE svg PUBLIC "-//W3C//DTD SVG 20010904//EN"
 "http://www.w3.org/TR/2001/REC-SVG-20010904/DTD/svg10.dtd">
<svg version="1.0" xmlns="http://www.w3.org/2000/svg"
 width="1024.000000pt" height="1024.000000pt" viewBox="0 0 1024.000000 1024.000000"
 preserveAspectRatio="xMidYMid meet">
<metadata>
Created by potrace 1.11, written by Peter Selinger 2001-2013
</metadata>
<g transform="translate(0.000000,1024.000000) scale(0.100000,-0.100000)"
fill="#000000" stroke="none">
<path d="M5473 9639 c-2 -20 5 -23 24 -11 9 6 8 11 -5 19 -15 9 -18 7 -19 -8z"/>
<path d="M5229 9633 c-1 -10 -1 -25 0 -33 0 -10 -1 -11 -5 -2 -3 6 -10 12 -15
12 -6 0 -8 -4 -4 -9 3 -5 1 -12 -4 -15 -10 -7 -9 20 2 30 10 11 8 24 -4 24 -5
0 -7 -5 -4 -11 9 -13 -27 -8 -37 6 -5 6 -8 5 -8 -3 0 -7 -4 -11 -9 -7 -5 3
-13 0 -17 -6 -5 -8 -8 -8 -14 1 -5 8 -9 8 -13 -3 -4 -11 0 -15 14 -12 20 4 26
-9 9 -20 -5 -3 -10 -1 -10 4 0 6 -6 10 -12 9 -7 -2 -12 5 -10 15 5 27 -13 20
-26 -10 -9 -21 -11 -23 -8 -6 2 13 -3 28 -13 35 -14 11 -14 11 -3 -4 12 -16 2
-35 -12 -21 -12 12 -33 11 -32 -1 0 -6 -3 -11 -9 -11 -5 0 -9 7 -7 15 2 12 1
12 -6 2 -10 -15 -18 -15 -44 -1 -13 7 -16 6 -12 -5 3 -8 14 -13 24 -11 13 3
17 -1 13 -12 -5 -12 -7 -12 -14 -1 -7 10 -9 10 -9 -2 0 -10 -5 -7 -16 8 -13
19 -42 23 -30 3 3 -4 -5 -13 -17 -21 -19 -11 -20 -11 -11 1 9 11 7 19 -8 34
-19 20 -19 20 -12 0 7 -18 6 -19 -12 -5 -18 14 -18 14 -5 -2 7 -10 18 -15 23
-12 6 4 2 -5 -7 -20 -21 -31 -30 -35 -14 -4 10 18 9 20 -6 15 -9 -4 -25 -2
-35 3 -13 7 -21 7 -26 -2 -4 -6 -3 -8 4 -4 6 3 14 1 18 -6 4 -7 4 -10 -1 -6
-4 4 -14 3 -22 -3 -7 -6 -13 -8 -13 -4 0 4 -11 0 -24 -9 -24 -15 -25 -15 -21
4 2 12 -2 20 -11 21 -8 1 -22 2 -31 3 -10 1 -25 5 -33 11 -12 7 -13 6 -3 -7 7
-8 9 -19 5 -24 -4 -4 2 -2 12 6 18 14 19 14 5 -8 -14 -22 -14 -22 -23 -3 -7
16 -12 18 -32 9 -13 -6 -24 -16 -24 -21 0 -6 -3 -7 -6 -4 -4 4 -1 13 6 22 8
10 9 15 1 15 -6 0 -11 -3 -11 -7 0 -5 -12 -13 -26 -20 -23 -11 -24 -10 -20 10
3 12 3 16 0 10 -3 -7 -10 -13 -15 -13 -6 0 -7 5 -4 10 3 6 1 10 -4 10 -15 0
-14 -6 5 -35 14 -22 14 -23 -3 -21 -10 2 -21 -2 -25 -8 -5 -7 -8 -4 -8 8 0 15
-3 16 -15 6 -8 -7 -12 -16 -9 -21 3 -5 0 -9 -6 -9 -7 0 -10 7 -6 15 3 8 1 15
-5 15 -6 0 -7 5 -3 12 5 7 3 8 -7 2 -8 -5 -20 -9 -28 -9 -8 0 -16 -6 -19 -14
-3 -10 0 -11 9 -5 23 14 38 13 32 -3 -5 -12 -7 -12 -14 -1 -6 9 -9 9 -9 1 0
-6 -9 -11 -19 -10 -11 0 -17 5 -15 9 3 4 -4 8 -15 8 -12 0 -21 -5 -21 -11 0
-5 -4 -7 -10 -4 -18 11 -51 14 -45 4 4 -5 1 -9 -6 -9 -8 0 -7 -5 2 -17 10 -11
10 -14 2 -9 -7 4 -13 2 -13 -3 0 -6 -5 -11 -11 -11 -8 0 -8 5 1 15 10 12 10
15 0 15 -9 0 -10 4 -2 13 8 10 6 13 -11 14 -18 2 -19 0 -7 -8 12 -9 11 -10 -7
-6 -15 3 -20 1 -16 -9 2 -7 10 -12 16 -10 7 1 9 1 4 -1 -4 -3 -4 -10 -1 -15 4
-6 2 -8 -4 -4 -6 3 -13 -2 -15 -11 -4 -17 -5 -17 -6 0 0 10 -5 15 -11 12 -5
-3 -10 -1 -10 5 0 7 7 9 16 6 14 -6 15 -4 4 9 -9 11 -15 12 -20 5 -4 -6 -15
-8 -26 -4 -11 3 -15 2 -9 -3 6 -4 17 -17 25 -28 14 -19 14 -19 -4 -5 -18 14
-19 13 -14 -8 4 -12 2 -20 -3 -16 -5 3 -9 12 -9 21 0 12 -3 13 -14 4 -10 -8
-16 -9 -21 -1 -6 9 1 14 18 11 4 0 7 4 7 9 0 16 -22 12 -36 -7 -11 -15 -9 -20
9 -30 21 -11 21 -11 -5 -10 -14 1 -24 5 -22 8 4 8 -23 21 -48 24 -13 1 -15 -2
-8 -10 5 -7 9 -14 7 -16 -1 -2 4 2 11 10 8 10 12 11 12 3 0 -7 1 -15 3 -19 1
-3 -6 -7 -16 -9 -10 -1 -21 4 -24 12 -3 8 -17 13 -33 12 -16 -1 -26 -6 -23
-12 4 -5 -1 -7 -11 -3 -11 4 -19 1 -22 -11 -15 -47 -22 -57 -19 -24 3 26 1 31
-9 23 -7 -6 -15 -9 -18 -6 -2 3 -5 -2 -5 -10 0 -12 3 -12 16 -2 14 10 14 10 3
-5 -10 -12 -20 -14 -40 -9 -31 9 -52 4 -52 -11 0 -7 5 -6 14 1 9 8 16 8 20 2
4 -5 2 -12 -4 -16 -5 -3 -10 -3 -10 2 0 4 -5 1 -10 -7 -5 -8 -10 -10 -10 -4 0
13 -31 15 -47 2 -7 -6 -10 -15 -6 -22 3 -6 3 -8 -2 -4 -4 4 -14 3 -21 -3 -10
-8 -12 -5 -8 15 2 13 0 27 -6 31 -5 3 -7 0 -4 -8 3 -10 -1 -14 -12 -14 -9 1
-18 -6 -19 -16 -2 -9 1 -15 6 -11 5 3 7 10 4 15 -4 5 -1 9 4 9 6 0 11 -7 11
-15 0 -15 -11 -19 -39 -16 -7 2 -10 -2 -7 -7 3 -6 -2 -9 -11 -8 -10 2 -22 -2
-26 -8 -6 -7 -7 -4 -3 7 3 9 1 17 -4 17 -6 0 -11 -7 -11 -15 -1 -8 -2 -20 -3
-27 0 -6 -7 -12 -14 -14 -7 -1 -8 0 -2 3 7 3 7 10 -2 21 -11 13 -11 14 0 8 11
-7 12 -4 3 12 -10 18 -41 22 -41 5 0 -3 7 -3 15 1 24 9 17 -10 -10 -28 -31
-20 -57 -21 -31 -1 11 8 15 15 9 15 -7 0 -15 -5 -18 -10 -4 -6 -12 -7 -18 -3
-7 3 -3 -4 8 -17 l20 -23 -22 12 c-27 14 -45 14 -20 0 9 -5 17 -15 17 -22 0
-8 -3 -8 -8 -2 -10 15 -30 17 -52 5 -13 -7 -20 -6 -22 2 -3 8 -7 6 -11 -5 -3
-9 -1 -19 5 -23 6 -4 9 -3 5 2 -3 5 8 10 24 10 16 1 29 -2 29 -6 0 -4 -10 -7
-22 -6 -13 0 -22 -4 -21 -10 2 -9 -4 -9 -22 -1 -13 7 -21 16 -18 21 4 5 1 6
-5 2 -7 -4 -12 -2 -12 5 0 7 -2 10 -5 7 -3 -3 -1 -17 4 -31 7 -18 7 -28 -1
-33 -7 -4 -8 -3 -4 4 4 7 2 12 -4 12 -6 0 -8 6 -5 13 4 6 0 4 -9 -7 -9 -11
-22 -16 -31 -12 -11 4 -15 2 -12 -6 2 -7 13 -12 25 -12 12 1 19 -2 17 -7 -3
-4 -14 -6 -25 -4 -11 2 -27 -3 -35 -11 -11 -12 -15 -12 -15 -2 0 10 -3 9 -11
-2 -9 -13 -10 -13 -6 0 2 8 10 14 17 12 11 -3 11 0 0 12 -7 9 -15 16 -18 16
-3 0 -3 -3 1 -6 9 -10 -22 -36 -36 -31 -9 4 -9 6 1 6 6 1 12 6 12 13 0 6 -11
1 -24 -11 -15 -14 -30 -20 -37 -16 -8 5 -10 4 -5 -3 6 -11 -38 -37 -56 -34 -3
1 -11 -5 -18 -13 -6 -7 -19 -11 -28 -8 -9 3 -14 3 -11 -1 11 -12 50 -16 43 -4
-5 7 -2 8 6 3 8 -5 11 -4 7 2 -3 5 0 10 8 10 10 0 12 -4 5 -12 -5 -7 -6 -16
-2 -20 4 -5 1 -5 -5 -1 -8 4 -13 2 -13 -6 0 -10 -2 -10 -9 1 -6 10 -10 10 -16
2 -5 -9 -13 -8 -31 3 -22 15 -23 15 -17 -1 6 -16 5 -17 -13 -3 -16 12 -17 12
-6 0 7 -8 20 -15 29 -15 9 0 18 -7 20 -15 4 -13 3 -13 -7 0 -9 11 -13 12 -17
3 -2 -7 -9 -13 -14 -13 -6 0 -7 5 -4 10 8 12 -5 13 -25 0 -9 -5 -19 -5 -27 2
-9 7 -13 7 -13 -1 0 -10 13 -15 33 -12 14 2 7 -17 -9 -23 -8 -3 -12 -12 -9
-18 4 -7 0 -5 -8 4 -8 10 -18 14 -22 10 -5 -4 -5 -2 -1 5 4 7 14 10 24 7 14
-5 15 -4 2 5 -8 6 -18 11 -22 11 -7 0 -23 -41 -20 -52 1 -5 -3 -8 -9 -8 -6 0
-9 6 -6 13 3 8 -1 14 -9 14 -7 0 -10 -5 -7 -10 4 -6 -1 -8 -11 -4 -9 4 -15 3
-12 -1 2 -4 -2 -18 -10 -32 -7 -14 -13 -21 -14 -17 0 4 -11 -5 -25 -20 -14
-15 -24 -23 -23 -17 2 7 -1 12 -7 12 -5 0 -9 -3 -8 -7 1 -4 -11 -7 -27 -6 -25
1 -28 -1 -24 -24 l4 -26 -15 25 c-16 29 -20 10 -4 -23 10 -22 10 -22 -10 1
-23 27 -35 29 -22 4 7 -14 6 -19 -4 -19 -8 0 -12 4 -9 9 3 4 0 8 -6 8 -6 0 -8
5 -4 12 4 6 3 8 -4 5 -5 -4 -8 -15 -5 -25 2 -10 -3 -25 -13 -33 -16 -13 -16
-12 -4 11 12 23 12 24 -3 11 -19 -15 -23 -41 -7 -41 6 0 10 -5 10 -11 0 -8 -4
-8 -14 0 -11 9 -15 9 -20 -1 -3 -7 -3 -3 -1 9 3 12 1 24 -4 28 -7 4 -8 -1 -4
-11 5 -13 3 -15 -8 -8 -22 14 -44 15 -30 1 6 -6 11 -16 11 -21 0 -6 -4 -6 -11
1 -6 6 -19 8 -30 6 -19 -5 -19 -6 1 -20 12 -8 24 -12 27 -9 4 3 1 6 -5 6 -7 0
-12 5 -12 11 0 8 4 8 14 0 11 -10 17 -8 25 6 9 16 10 16 8 -4 0 -12 -3 -20 -6
-18 -2 3 -10 0 -18 -7 -7 -6 -16 -8 -20 -5 -3 4 -12 2 -19 -4 -9 -7 -19 -7
-32 0 -17 9 -19 8 -15 -9 3 -11 9 -20 14 -20 5 0 9 -5 9 -11 0 -5 -4 -8 -9 -5
-5 4 -11 1 -13 -6 -3 -7 -7 -5 -11 6 -4 10 -3 15 3 11 5 -3 7 1 4 9 -5 12 -9
13 -19 3 -7 -7 -9 -13 -5 -15 4 -2 6 -12 3 -23 -4 -15 -2 -18 13 -13 15 5 16
4 4 -4 -17 -13 -30 -6 -30 14 0 9 -5 12 -12 8 -8 -5 -9 -2 -5 10 4 9 3 14 -2
11 -14 -8 -5 -61 9 -57 6 1 9 -2 5 -8 -4 -6 -14 -4 -29 5 -22 15 -36 11 -36
-9 0 -6 4 -5 9 3 6 9 8 5 8 -14 0 -17 -2 -22 -7 -15 -5 7 -21 14 -37 16 -23 2
-25 1 -10 -7 9 -6 17 -18 16 -27 0 -15 -1 -15 -8 1 -10 26 -18 26 -36 -1 -9
-12 -20 -20 -25 -17 -5 3 -7 -6 -4 -20 2 -14 0 -25 -6 -25 -6 0 -8 5 -5 10 3
6 -1 10 -9 10 -19 0 -19 -4 -5 -33 9 -19 7 -18 -10 3 -18 23 -25 10 -8 -16 4
-7 0 -15 -8 -18 -21 -8 -25 -7 -22 2 1 4 5 6 10 4 12 -4 8 15 -7 27 -11 9 -16
9 -22 0 -5 -8 -3 -9 6 -4 8 5 11 3 8 -6 -3 -8 -11 -13 -17 -11 -8 1 -9 -3 -2
-15 6 -13 5 -24 -4 -36 -11 -16 -13 -16 -19 -2 -4 11 -2 14 6 9 7 -5 8 -3 3 6
-5 9 -4 11 3 6 18 -11 14 0 -5 15 -10 8 -14 9 -10 2 4 -6 3 -14 -2 -18 -6 -3
-8 -11 -6 -18 3 -7 0 -19 -5 -27 -9 -13 -14 -11 -32 10 -20 24 -20 24 -14 3 6
-17 3 -23 -8 -23 -9 0 -16 -5 -16 -10 0 -7 6 -7 20 0 14 7 20 7 20 0 0 -5 -6
-10 -14 -10 -8 0 -17 -6 -19 -12 -4 -10 -6 -10 -6 0 -1 6 -5 12 -10 12 -4 0
-7 -11 -6 -24 2 -18 -1 -23 -12 -19 -12 5 -12 7 -1 14 9 6 9 9 1 9 -16 0 -28
-21 -15 -29 6 -3 0 -13 -13 -24 -17 -12 -26 -14 -31 -5 -5 7 -3 8 6 3 9 -6 11
-4 5 5 -6 9 -4 11 5 5 9 -5 11 -4 6 4 -6 8 -12 9 -20 2 -7 -6 -15 -10 -17 -8
-2 1 -1 -2 3 -7 3 -5 4 -15 1 -24 -5 -11 -3 -13 7 -7 8 5 11 4 6 -3 -9 -16
-36 -3 -29 14 3 8 0 14 -6 14 -6 0 -10 -6 -8 -12 1 -7 -3 -12 -10 -11 -8 2
-10 -4 -6 -14 5 -12 3 -14 -8 -8 -8 4 -11 5 -7 0 4 -4 3 -14 -3 -21 -6 -8 -9
-20 -6 -28 4 -10 1 -13 -8 -9 -8 3 -13 9 -10 13 3 5 0 12 -6 16 -8 4 -9 3 -5
-5 4 -6 0 -14 -8 -17 -9 -3 -16 -11 -16 -16 0 -6 6 -6 14 1 10 8 16 9 21 1 6
-10 5 -11 -17 -14 -7 -1 -12 -7 -10 -14 1 -7 -5 -15 -13 -18 -8 -3 -12 -11 -8
-17 3 -6 1 -7 -5 -3 -6 4 -9 13 -6 21 4 8 10 13 14 10 11 -7 6 22 -5 32 -4 4
-5 2 -1 -4 4 -7 2 -13 -3 -13 -6 0 -11 -7 -11 -16 0 -10 -6 -14 -15 -10 -8 3
-14 2 -12 -2 3 -11 -41 -51 -49 -44 -4 4 1 -5 10 -20 17 -26 17 -26 -4 -21
-16 4 -19 2 -14 -11 3 -9 11 -13 17 -9 6 3 7 1 3 -6 -4 -6 -11 -9 -16 -6 -5 3
-11 1 -15 -5 -3 -5 -15 -10 -26 -10 -11 0 -18 4 -14 10 3 5 12 7 19 4 19 -7
27 9 14 26 -8 12 -9 11 -4 -3 5 -14 2 -17 -12 -13 -13 5 -23 -2 -33 -21 -8
-16 -20 -34 -27 -41 -6 -7 -12 -18 -12 -23 0 -6 -4 -7 -10 -4 -6 3 -7 -1 -4
-10 5 -11 2 -14 -12 -9 -15 5 -16 4 -4 -4 8 -6 18 -8 22 -6 4 3 8 0 8 -5 0 -6
-5 -11 -11 -11 -5 0 -7 -4 -4 -10 3 -6 -1 -7 -9 -4 -9 3 -13 10 -10 15 3 5 -2
6 -11 3 -9 -4 -14 -9 -11 -12 3 -2 1 -13 -4 -23 -7 -12 -7 -20 0 -24 5 -3 10
-11 10 -16 0 -6 -8 -3 -18 7 -16 17 -17 17 -21 -2 -1 -10 -10 -27 -19 -36 -14
-17 -13 -18 8 -18 13 0 21 -3 17 -6 -11 -11 -58 6 -51 18 4 7 3 8 -5 4 -6 -4
-9 -12 -6 -17 4 -5 -1 -12 -9 -15 -9 -3 -13 -10 -10 -15 3 -5 -2 -9 -10 -9 -9
0 -16 -5 -16 -11 0 -5 4 -7 10 -4 5 3 10 1 10 -4 0 -11 -13 -15 -40 -12 -13 2
-13 1 0 -8 12 -8 12 -11 -4 -17 -14 -5 -15 -9 -4 -15 10 -7 9 -9 -4 -9 -10 0
-18 -5 -18 -11 0 -7 8 -6 22 4 13 8 23 20 23 27 0 8 6 15 13 18 15 5 16 -14 2
-23 -8 -5 -7 -12 2 -23 11 -15 11 -15 -4 -4 -9 7 -18 9 -20 5 -1 -4 -14 -15
-28 -24 -16 -11 -25 -26 -25 -45 0 -17 -6 -28 -13 -27 -12 3 -16 -9 -13 -34 1
-6 -3 -14 -9 -18 -6 -4 -7 1 -3 12 3 10 3 15 -2 11 -4 -4 -15 -2 -23 5 -13 10
-14 9 -7 -2 6 -11 4 -13 -7 -8 -20 7 -18 -14 2 -39 9 -11 10 -15 3 -10 -8 4
-13 1 -13 -8 0 -14 -11 -20 -32 -17 -4 0 -5 -5 -2 -13 3 -7 -1 -16 -9 -19 -9
-3 -13 -18 -12 -42 2 -20 0 -34 -3 -31 -3 3 -12 -2 -20 -12 -9 -11 -9 -8 2 10
14 24 14 27 1 22 -22 -9 -20 -50 3 -48 16 2 16 2 -10 -20 -18 -16 -20 -16 -15
-2 4 10 3 15 -2 11 -5 -3 -11 0 -13 7 -3 9 -6 9 -12 0 -4 -7 -2 -12 3 -12 6 0
11 -7 11 -15 0 -8 -4 -15 -10 -15 -5 0 -10 -5 -10 -11 0 -5 5 -7 10 -4 5 3 10
1 10 -6 0 -7 -10 -9 -25 -7 -14 3 -28 1 -32 -5 -3 -6 -1 -7 5 -3 7 4 12 2 12
-4 0 -6 5 -8 12 -4 7 5 8 3 4 -5 -5 -7 -14 -10 -22 -7 -7 3 -16 0 -20 -6 -4
-7 -3 -8 4 -4 7 4 12 2 12 -4 0 -6 4 -9 8 -6 5 3 9 -1 9 -8 0 -7 -6 -13 -13
-13 -7 0 -10 5 -7 10 3 6 1 7 -4 4 -13 -8 -36 17 -25 28 4 5 1 5 -6 1 -16 -10
-1 -30 43 -59 17 -10 21 -16 10 -12 -35 12 -39 10 -43 -15 -2 -14 -8 -30 -13
-36 -5 -6 -10 -23 -11 -37 -1 -14 -5 -24 -9 -21 -4 2 -10 0 -14 -6 -4 -7 -12
-7 -25 0 -37 20 -34 9 5 -16 22 -14 32 -23 23 -20 -10 3 -20 1 -23 -5 -4 -5
-11 -7 -16 -4 -5 3 -6 -2 -2 -11 4 -12 3 -15 -5 -10 -7 4 -12 2 -12 -3 0 -16
16 -13 30 4 7 8 18 15 24 15 6 0 3 -5 -7 -11 -9 -6 -14 -15 -11 -21 4 -7 2 -8
-4 -4 -7 4 -12 2 -12 -4 0 -6 -5 -8 -10 -5 -6 3 -10 1 -10 -5 0 -6 -4 -9 -9
-5 -6 3 -8 -6 -5 -20 3 -20 1 -23 -13 -19 -15 5 -15 4 -3 -4 8 -6 18 -8 22 -6
4 3 8 0 8 -5 0 -6 -9 -11 -21 -11 -11 0 -17 -5 -14 -10 4 -6 10 -8 14 -6 3 3
7 -4 7 -14 0 -10 -6 -16 -13 -13 -7 3 -10 9 -7 14 3 5 0 9 -5 9 -13 0 -15 -17
-3 -24 7 -4 8 -35 3 -54 -1 -1 -9 2 -19 7 -14 7 -19 6 -19 -4 0 -8 4 -12 9 -9
10 6 6 -42 -5 -52 -3 -4 -5 3 -2 15 4 22 -9 29 -20 11 -3 -5 -1 -10 4 -10 6 0
10 -6 8 -12 -1 -8 7 -12 18 -11 19 1 19 1 2 -12 -13 -10 -15 -14 -5 -18 7 -3
3 -4 -9 -4 -17 1 -19 4 -11 14 7 9 7 13 -1 13 -6 0 -11 -5 -11 -11 0 -5 -4 -8
-9 -4 -5 3 -13 0 -17 -6 -4 -8 -3 -9 5 -5 6 4 14 0 17 -8 3 -9 11 -13 18 -9 6
4 6 0 -2 -9 -10 -13 -10 -17 0 -21 11 -4 10 -6 0 -6 -7 -1 -10 -6 -6 -13 4 -6
3 -8 -4 -4 -6 3 -9 15 -7 25 2 11 -3 22 -11 25 -11 4 -12 2 -5 -13 6 -10 7
-21 4 -25 -3 -3 2 -16 13 -28 16 -19 16 -21 1 -9 -15 12 -20 12 -30 1 -9 -9
-9 -11 0 -6 6 3 14 2 18 -3 3 -6 -5 -8 -20 -5 -14 2 -25 0 -25 -6 0 -6 4 -9 9
-6 12 8 20 -40 9 -56 -7 -9 -8 -8 -4 5 4 12 2 16 -6 11 -8 -5 -9 -1 -4 12 5
12 4 15 -2 9 -11 -11 -4 -77 7 -70 4 2 8 -2 8 -9 0 -9 -9 -13 -23 -10 -13 2
-26 -1 -30 -8 -5 -8 -2 -9 10 -5 12 5 16 3 13 -5 -2 -7 -12 -12 -21 -12 -10 1
-15 -1 -12 -4 3 -3 0 -12 -7 -21 -11 -14 -10 -14 6 -2 9 7 17 10 17 5 0 -5 4
-3 9 4 7 11 9 10 14 -3 4 -9 3 -14 -1 -11 -4 2 -18 -2 -32 -11 -14 -8 -17 -12
-7 -9 10 3 17 0 17 -7 0 -8 4 -7 10 3 5 8 12 11 17 6 4 -4 0 -12 -10 -17 -9
-6 -15 -14 -13 -18 3 -4 -1 -8 -9 -8 -11 0 -12 4 -4 14 7 8 8 13 1 13 -12 0
-21 -21 -15 -37 2 -7 10 -11 16 -9 7 1 9 1 5 -1 -5 -3 -8 -13 -8 -24 0 -11 -6
-22 -14 -25 -8 -3 -12 -12 -9 -20 4 -12 -6 -18 -28 -16 -3 1 -6 -5 -6 -13 0
-8 5 -11 10 -8 6 4 8 0 4 -10 -3 -9 -1 -19 5 -23 6 -4 8 -3 4 4 -3 6 -1 14 5
18 8 4 7 9 -2 15 -10 6 -7 8 9 6 26 -2 29 -12 6 -21 -8 -3 -13 -10 -9 -15 11
-19 -17 -22 -38 -4 -22 18 -22 18 -4 -3 9 -11 14 -24 10 -29 -5 -4 -2 -5 5 -1
7 4 12 1 12 -8 0 -19 -11 -21 -27 -5 -8 8 -13 7 -18 -2 -5 -7 -4 -10 3 -5 19
12 26 -17 7 -31 -17 -12 -17 -13 -2 -13 9 0 17 4 17 10 0 5 10 14 23 20 21 11
21 10 3 -4 -21 -17 -15 -35 7 -20 7 5 6 2 -3 -6 -9 -9 -16 -23 -15 -31 2 -9
-3 -16 -11 -16 -7 0 -10 5 -6 11 13 21 10 35 -6 28 -11 -4 -12 -7 -4 -10 9 -3
10 -8 3 -15 -5 -7 -11 -16 -13 -22 -1 -5 -6 -9 -10 -8 -8 3 -4 -24 5 -33 14
-14 7 -26 -8 -14 -13 11 -14 10 -9 -4 8 -21 30 -15 28 8 -1 9 3 16 10 16 6 0
6 4 -3 9 -9 6 -10 11 -2 15 12 8 15 -4 11 -43 -1 -16 2 -21 11 -16 8 5 10 4 5
-3 -4 -6 -14 -8 -23 -5 -12 5 -14 3 -8 -7 6 -10 4 -12 -8 -7 -9 3 -19 2 -22
-4 -4 -5 -1 -8 6 -7 6 2 14 -3 17 -11 2 -8 0 -11 -5 -8 -5 3 -10 -3 -10 -14
-1 -11 2 -17 8 -14 5 4 9 1 9 -5 0 -6 4 -9 8 -6 5 3 9 -1 9 -9 0 -8 -4 -12 -8
-9 -4 2 -10 0 -13 -5 -4 -5 -1 -13 5 -17 9 -5 8 -10 -3 -18 -16 -12 -20 -87
-5 -97 5 -4 0 -10 -12 -14 -11 -3 -21 -11 -21 -16 0 -12 13 -12 26 1 7 7 11 6
11 -5 0 -8 -2 -13 -5 -10 -3 2 -14 0 -25 -6 -15 -9 -18 -8 -12 2 5 8 4 10 -3
5 -21 -13 -12 -26 14 -22 19 4 23 2 16 -7 -6 -7 -10 -16 -10 -20 0 -5 -3 -12
-7 -15 -4 -4 -5 -1 -3 7 2 7 -4 16 -12 18 -9 3 -11 1 -5 -4 13 -10 19 -47 7
-39 -5 3 -9 -2 -9 -10 0 -9 6 -13 14 -10 8 3 11 2 8 -3 -3 -5 -1 -12 5 -16 5
-3 10 -12 10 -18 0 -8 -2 -9 -8 -1 -4 6 -18 16 -32 23 l-25 12 24 -19 c16 -13
20 -22 12 -26 -6 -4 -16 -17 -22 -29 -11 -22 -11 -22 10 1 12 12 26 20 32 17
13 -8 11 -16 -2 -12 -6 1 -14 -4 -17 -12 -3 -9 0 -11 8 -6 8 5 11 4 6 -3 -3
-5 -3 -12 1 -15 5 -2 2 -2 -6 0 -8 2 -11 -2 -8 -12 4 -8 1 -17 -5 -21 -7 -5
-8 -2 -3 6 6 9 4 11 -4 5 -10 -6 -11 -3 -2 14 9 17 9 20 -3 15 -11 -4 -15 -30
-6 -41 7 -8 4 -29 -3 -34 -5 -3 -2 -9 6 -12 12 -4 15 0 12 15 -3 11 -2 18 2
15 3 -4 11 0 17 9 10 13 12 13 12 -5 0 -11 -5 -19 -10 -18 -6 1 -10 -2 -11 -8
0 -5 -4 -15 -8 -22 -4 -6 -3 -14 3 -18 5 -3 10 -1 10 4 0 6 4 11 8 11 5 0 9
-6 9 -14 0 -8 -8 -13 -19 -11 -10 2 -18 0 -18 -5 0 -5 -8 -7 -17 -3 -15 5 -14
3 2 -10 11 -9 15 -17 10 -17 -12 0 -16 -60 -4 -60 4 0 6 9 4 19 -3 14 1 18 12
14 8 -3 11 -9 6 -12 -12 -9 -16 -44 -5 -37 6 3 9 -2 7 -11 -2 -10 -4 -21 -4
-25 -1 -5 -8 -8 -16 -8 -8 0 -15 -5 -15 -11 0 -6 7 -9 15 -6 16 7 32 -12 19
-22 -13 -9 -18 -65 -5 -57 7 4 8 1 5 -8 -3 -9 -10 -16 -16 -16 -5 0 -7 4 -3 9
3 5 1 12 -5 16 -6 4 -8 11 -5 16 11 17 14 49 5 49 -5 0 -9 -8 -9 -18 0 -9 -2
-26 -4 -37 -3 -11 4 -30 16 -43 11 -12 16 -22 11 -22 -5 0 -2 -5 6 -10 13 -9
13 -10 0 -10 -13 0 -13 -1 0 -11 13 -9 13 -10 0 -6 -8 2 -14 14 -14 25 1 12
-3 22 -7 22 -5 0 -7 -12 -3 -27 3 -16 6 -36 6 -45 -1 -11 6 -15 19 -13 11 2
17 0 14 -6 -4 -5 -11 -7 -16 -4 -5 4 -9 1 -9 -5 0 -6 -5 -8 -12 -4 -7 4 -8 3
-4 -5 4 -6 10 -10 14 -7 4 2 16 -1 27 -5 18 -9 18 -9 -2 -5 -20 4 -23 0 -23
-28 0 -18 -6 -38 -12 -45 -11 -11 -10 -14 0 -18 10 -4 10 -8 0 -21 -10 -12
-10 -14 0 -8 8 5 12 -1 12 -19 0 -14 -4 -24 -8 -21 -4 2 -8 -6 -8 -19 0 -13 5
-23 10 -22 6 1 10 -4 8 -11 -1 -8 2 -11 9 -6 9 5 10 2 4 -12 -4 -10 -9 -28
-10 -40 -1 -11 -5 -26 -9 -32 -5 -8 -3 -11 5 -10 7 2 13 -1 14 -7 1 -21 16
-34 33 -29 16 5 16 5 0 -6 -10 -6 -18 -18 -18 -26 0 -9 -5 -12 -11 -8 -8 4 -8
0 0 -15 7 -11 14 -21 17 -21 3 0 2 4 -1 10 -3 5 -1 18 5 27 9 15 10 14 4 -6
-5 -18 -3 -22 7 -15 12 6 12 5 0 -9 -11 -14 -11 -17 0 -18 8 -1 18 -1 22 0 5
1 6 -3 2 -8 -3 -6 -12 -8 -19 -5 -8 3 -12 -2 -11 -15 1 -22 15 -42 15 -22 0 7
5 9 11 5 8 -5 6 -10 -5 -16 -9 -5 -14 -14 -10 -19 3 -5 0 -17 -7 -25 -10 -12
-10 -17 1 -27 8 -8 11 -8 7 -1 -4 7 1 18 11 25 15 13 16 12 3 -3 -9 -13 -10
-18 -2 -18 8 0 8 -4 -1 -14 -9 -9 -17 -11 -25 -5 -7 7 -14 6 -18 -1 -4 -6 -1
-9 5 -8 7 2 14 -5 16 -15 2 -9 5 -24 7 -32 2 -8 7 -18 12 -22 4 -4 5 -1 0 7
-7 12 -6 13 6 2 11 -10 11 -14 1 -21 -8 -4 -10 -15 -6 -26 5 -13 4 -16 -4 -11
-8 5 -10 2 -6 -8 10 -25 23 -19 20 9 -2 13 0 22 5 20 4 -3 9 1 12 7 3 7 4 0 3
-15 -2 -16 -10 -37 -19 -48 -25 -29 -20 -36 7 -10 18 17 26 19 31 10 5 -7 4
-10 -3 -5 -6 4 -16 -4 -23 -16 -7 -13 -17 -27 -23 -31 -7 -6 -4 -7 7 -3 15 5
17 2 12 -14 -4 -12 -2 -20 5 -20 6 0 9 4 6 8 -3 5 1 9 8 9 11 0 12 -5 3 -21
-7 -12 -16 -24 -22 -28 -9 -7 0 -10 21 -7 14 2 22 -26 14 -47 -6 -15 -5 -26 2
-30 7 -4 8 -3 4 4 -11 18 3 14 22 -5 16 -16 16 -16 0 -10 -10 3 -18 2 -18 -4
0 -6 -4 -8 -9 -5 -5 3 -15 -2 -22 -12 -12 -15 -12 -16 2 -5 18 15 30 8 22 -13
-3 -8 0 -14 7 -14 10 0 10 -3 0 -15 -7 -9 -10 -18 -6 -22 3 -3 6 -1 6 6 0 7 5
9 10 6 6 -4 8 -11 5 -16 -3 -5 1 -6 9 -3 9 3 16 1 16 -5 0 -6 -10 -11 -22 -12
-22 0 -22 -1 2 -10 20 -8 22 -12 10 -20 -12 -8 -10 -9 9 -7 16 2 25 -2 26 -13
2 -9 -3 -16 -11 -16 -7 0 -11 4 -8 9 9 15 -3 8 -17 -9 -8 -9 -9 -14 -4 -11 6
3 23 1 40 -6 19 -8 25 -15 17 -20 -7 -4 -12 -3 -12 2 0 5 -6 9 -14 9 -11 0
-12 -4 -3 -18 7 -11 19 -16 36 -13 19 3 22 2 11 -5 -8 -5 -18 -7 -22 -5 -4 3
-8 -2 -8 -11 0 -9 5 -13 10 -10 6 4 9 1 8 -7 -2 -7 2 -12 7 -11 11 2 13 -5 18
-66 1 -19 9 -37 16 -39 10 -3 12 1 7 14 -6 16 -5 17 6 6 11 -11 9 -16 -11 -31
-18 -14 -21 -20 -11 -26 9 -5 11 -4 6 3 -13 21 0 13 30 -20 16 -17 24 -28 18
-25 -17 10 -39 -19 -23 -29 7 -4 9 -3 6 3 -3 5 0 10 7 10 11 0 12 -4 3 -18 -6
-9 -18 -15 -26 -12 -10 3 -9 0 3 -7 15 -10 16 -14 5 -21 -11 -7 -11 -9 -1 -9
7 0 10 -5 7 -10 -4 -6 -3 -10 2 -9 20 3 29 -2 30 -21 1 -13 -2 -18 -10 -14 -7
4 -8 3 -4 -2 5 -5 14 -9 20 -9 7 0 11 -8 9 -18 -3 -15 8 -21 30 -18 8 1 5 -20
-5 -37 -5 -7 -13 -9 -19 -6 -7 4 -8 2 -4 -5 4 -6 12 -9 17 -6 5 4 14 -5 21
-19 6 -14 15 -26 20 -26 4 0 8 -10 7 -22 0 -22 -1 -22 -9 -3 -8 18 -9 17 -7
-6 0 -14 7 -26 13 -26 7 0 13 3 12 6 0 3 0 15 1 26 1 16 3 17 11 5 6 -9 5 -17
-3 -22 -7 -4 -8 -8 -3 -8 5 0 2 -8 -5 -17 -12 -15 -12 -16 3 -11 21 9 32 -19
16 -41 -10 -13 -10 -14 2 -4 23 21 35 15 15 -7 -10 -11 -16 -20 -14 -21 2 0
12 -2 22 -4 16 -3 16 -1 5 13 -11 15 -11 15 3 5 9 -7 18 -11 21 -8 2 3 5 -2 5
-10 0 -8 -4 -12 -9 -9 -4 3 -8 0 -8 -6 0 -6 -6 -8 -13 -4 -9 5 -9 4 0 -6 6 -7
9 -20 6 -29 -4 -14 -3 -14 6 -1 10 14 16 7 12 -13 -1 -5 3 -6 9 -2 5 3 10 1
10 -5 0 -6 4 -9 9 -5 5 3 12 1 16 -5 4 -6 11 -8 16 -5 5 3 6 -2 2 -11 -4 -11
-2 -15 4 -11 6 4 10 -1 9 -11 0 -9 2 -17 6 -17 10 0 39 -41 37 -52 -1 -4 0
-11 1 -15 1 -5 3 -14 4 -20 0 -7 7 -13 15 -13 17 0 26 -21 12 -29 -10 -7 -37
32 -33 47 1 5 -3 5 -9 1 -8 -4 -9 -3 -5 4 5 8 1 10 -9 6 -14 -6 -13 -9 5 -21
15 -10 19 -21 15 -36 -5 -16 -4 -18 3 -8 12 16 24 0 26 -33 1 -11 7 -21 14
-21 6 0 11 -4 10 -10 -2 -5 -7 -9 -11 -7 -5 1 -6 -2 -2 -8 4 -7 14 -5 28 5 31
22 44 18 17 -5 -13 -11 -17 -20 -10 -20 7 0 10 -7 6 -16 -3 -8 -2 -13 3 -10 5
3 14 0 20 -8 9 -11 9 -15 -1 -19 -11 -4 -10 -6 0 -6 8 -1 10 -6 6 -13 -5 -9
-2 -9 9 1 9 7 17 10 17 6 0 -4 8 -1 18 6 9 7 14 10 10 5 -4 -5 -3 -16 2 -26 5
-10 6 -20 3 -24 -4 -3 -7 -15 -8 -26 -2 -20 6 -24 34 -21 7 2 10 -2 6 -8 -4
-7 1 -8 12 -4 15 6 16 4 5 -9 -10 -13 -10 -17 4 -22 9 -4 19 -4 22 -1 3 3 -1
5 -8 5 -7 0 -11 2 -8 5 3 3 13 2 23 -1 15 -6 15 -9 -6 -21 -14 -8 -16 -12 -6
-9 15 5 17 2 11 -16 -6 -20 -5 -21 9 -9 9 7 15 17 12 21 -3 5 -1 11 4 15 6 3
8 -6 5 -21 -3 -16 -1 -23 6 -19 5 3 13 -1 16 -9 3 -9 11 -13 17 -9 6 3 7 1 3
-5 -4 -6 -13 -9 -21 -6 -8 4 -13 10 -10 15 6 9 -35 3 -44 -7 -3 -4 2 -4 11 -1
9 3 22 -1 28 -9 12 -13 7 -18 -13 -15 -5 1 -6 -3 -2 -9 3 -6 10 -8 15 -5 5 3
11 1 15 -5 3 -5 11 -10 18 -10 6 0 3 6 -6 13 -15 11 -14 12 12 12 27 1 28 0
15 -19 -18 -26 -19 -46 -1 -21 10 13 16 15 21 6 4 -6 11 -9 15 -7 4 3 8 -1 8
-9 0 -8 -4 -12 -9 -9 -11 7 -10 0 4 -30 9 -21 14 -23 25 -14 11 9 17 8 28 -3
16 -16 29 -72 14 -64 -5 4 -6 12 -3 18 4 7 3 8 -1 4 -14 -12 -15 -37 -2 -34 7
1 11 -4 9 -11 -1 -8 2 -11 7 -8 5 4 12 2 16 -3 3 -6 13 -7 23 -4 15 6 15 5 3
-10 -15 -19 -8 -22 20 -7 16 9 21 7 29 -15 6 -15 14 -23 20 -20 5 3 10 2 10
-4 0 -5 -9 -9 -19 -8 -11 0 -17 5 -14 11 3 5 1 6 -5 3 -6 -5 -8 1 -4 15 3 14
2 19 -7 14 -6 -4 -9 -12 -6 -17 4 -5 0 -9 -7 -9 -8 0 -6 -5 5 -11 10 -6 14
-15 10 -22 -5 -9 -3 -9 8 0 11 9 19 9 26 2 8 -8 13 -8 17 0 4 6 12 11 18 11 5
0 0 -9 -13 -20 -26 -21 -19 -26 12 -10 15 8 21 7 25 -5 3 -8 10 -13 14 -10 5
3 12 1 15 -5 4 -6 3 -10 -2 -9 -20 4 -27 -2 -13 -12 13 -9 13 -10 0 -6 -8 2
-16 9 -16 15 -1 7 -2 17 -3 23 0 5 -5 8 -11 4 -5 -3 -6 -13 -3 -22 5 -12 3
-14 -8 -8 -8 5 -11 5 -6 -1 5 -5 12 -9 15 -10 19 -2 61 -28 57 -35 -3 -4 -1
-10 5 -14 6 -4 8 -10 5 -15 -7 -11 22 -7 32 5 4 4 4 6 -2 3 -5 -3 -17 1 -25
10 -13 14 -12 15 5 7 11 -4 28 -8 38 -9 21 0 23 -16 2 -16 -10 0 -14 -9 -13
-24 1 -14 5 -23 9 -20 4 2 10 -3 13 -12 3 -8 10 -13 15 -9 5 3 12 1 16 -4 3
-6 19 -8 35 -6 17 2 28 0 25 -6 -4 -5 2 -12 12 -16 10 -3 25 -14 34 -22 14
-15 14 -18 1 -31 -14 -13 -15 -12 -9 3 4 11 3 16 -3 12 -5 -3 -7 0 -4 8 3 9
-3 16 -18 20 -22 6 -22 5 -4 -8 11 -9 14 -15 7 -15 -8 0 -7 -6 5 -17 18 -18
48 -28 39 -12 -4 5 1 6 10 3 12 -5 13 -9 4 -20 -7 -8 -9 -17 -5 -21 3 -3 6 -1
6 5 0 7 7 12 16 12 8 0 13 4 10 8 -3 5 1 9 8 9 8 0 13 -7 11 -16 -1 -9 -10
-15 -20 -13 -14 3 -15 1 -4 -11 8 -8 19 -14 24 -14 6 1 9 -6 9 -15 -1 -10 4
-14 13 -11 11 5 11 9 -3 24 -9 11 -13 19 -8 19 5 0 15 -9 22 -21 11 -18 16
-19 30 -7 15 12 16 11 3 -4 -7 -10 -17 -16 -21 -13 -5 3 -12 0 -16 -6 -4 -7
-3 -9 4 -5 6 3 18 -1 27 -10 15 -16 16 -16 13 1 -2 11 4 19 16 21 14 2 16 0 7
-9 -14 -14 -14 -37 0 -37 5 0 8 4 4 9 -3 5 0 13 6 17 7 4 9 3 6 -3 -7 -11 11
-31 28 -31 5 0 11 -6 13 -14 2 -9 0 -8 -8 2 -10 13 -11 12 -6 -3 3 -10 6 -21
6 -24 0 -3 8 1 17 8 11 10 14 10 9 2 -4 -9 -1 -13 10 -13 15 0 15 2 -1 28 -17
26 -17 26 0 10 20 -19 26 -59 10 -71 -6 -5 -2 -6 9 -3 14 5 17 3 12 -11 -6
-14 -5 -15 5 -6 9 10 10 15 0 27 -9 11 -9 16 0 22 8 4 9 3 5 -4 -9 -15 6 -16
21 -1 8 8 13 8 18 0 3 -6 1 -10 -6 -9 -6 2 -14 -3 -16 -10 -3 -7 1 -10 9 -7 7
3 26 -3 41 -14 23 -15 25 -19 12 -25 -9 -3 -14 -2 -11 2 3 5 -1 9 -9 9 -21 0
-19 -10 6 -25 12 -8 18 -9 14 -3 -3 6 1 11 10 11 10 0 13 -5 9 -12 -5 -7 -2
-9 9 -5 8 3 21 -1 27 -8 7 -8 16 -13 19 -10 4 2 8 -3 8 -11 0 -11 -6 -9 -23 7
-16 15 -24 17 -29 8 -5 -7 -4 -10 3 -5 6 3 18 -4 27 -16 l16 -23 16 22 c8 13
21 23 27 23 6 0 4 -5 -4 -10 -12 -8 -13 -12 -2 -19 8 -4 13 -11 12 -15 -1 -4
0 -16 3 -28 5 -17 9 -19 21 -9 12 10 16 8 21 -10 5 -15 9 -18 15 -9 4 7 13 9
20 5 9 -6 11 -4 6 4 -5 7 -14 10 -21 7 -7 -2 -16 2 -19 11 -5 12 -9 13 -20 4
-11 -9 -15 -7 -19 9 -3 11 -1 23 4 26 5 3 9 -2 9 -10 0 -9 3 -15 8 -14 4 0 15
-2 26 -7 12 -5 21 -3 27 6 6 10 9 11 10 2 1 -7 3 -17 4 -23 1 -5 3 -17 4 -26
0 -8 6 -12 11 -9 6 4 8 10 6 14 -3 4 1 8 9 8 8 0 13 -3 10 -5 -3 -3 3 -11 13
-18 12 -9 22 -9 36 -2 14 8 17 7 11 -3 -6 -9 -3 -10 11 -5 10 4 15 4 11 0 -4
-4 -2 -13 4 -20 7 -8 7 -14 -1 -19 -6 -4 -9 -1 -8 6 2 6 -3 14 -10 16 -11 4
-12 1 -3 -15 6 -12 16 -24 23 -28 7 -4 8 -3 4 4 -4 7 -2 12 3 12 6 0 11 -7 11
-15 0 -17 29 -9 48 14 10 14 12 14 10 1 -2 -8 -6 -17 -10 -20 -3 -3 1 -14 9
-25 12 -16 14 -16 10 -3 -3 10 -1 20 5 24 7 5 8 3 4 -5 -5 -8 -3 -12 5 -10 26
3 39 -1 39 -12 0 -5 -4 -7 -10 -4 -5 3 -10 3 -9 -2 0 -13 59 -56 59 -44 0 6
-5 11 -10 11 -6 0 -9 6 -8 13 2 6 -2 11 -9 10 -7 -2 -10 4 -6 13 5 12 8 12 19
-5 8 -11 22 -18 32 -16 11 2 19 -3 19 -11 0 -9 -4 -11 -12 -4 -8 7 -12 5 -12
-5 0 -7 3 -14 6 -13 3 0 9 -1 14 -2 4 -1 13 -3 20 -4 6 -1 11 -7 9 -14 -1 -7
2 -12 8 -12 5 0 10 4 10 9 0 14 -26 31 -36 23 -4 -4 -2 1 5 11 7 9 19 17 25
16 7 0 6 -2 -1 -6 -16 -6 8 -33 30 -33 9 0 17 -6 20 -12 3 -10 9 -10 27 0 12
8 19 9 15 3 -7 -12 8 -15 19 -4 3 4 14 8 22 9 9 1 13 -1 9 -4 -4 -4 -12 -7
-18 -7 -7 -1 -11 -7 -9 -13 2 -10 -3 -10 -17 -2 -23 12 -34 1 -20 -20 7 -12 9
-12 9 -1 0 7 6 11 14 8 7 -3 19 0 25 6 6 6 11 7 11 3 0 -5 8 -2 18 5 15 12 16
12 6 -1 -6 -8 -14 -23 -17 -32 -7 -19 -9 -19 56 13 21 11 21 11 6 -7 -32 -38
-29 -54 6 -32 13 8 47 -16 37 -28 -4 -4 1 -3 10 4 14 11 18 10 27 -5 6 -11 11
-13 11 -5 0 7 4 11 9 7 5 -3 12 -1 16 4 3 6 -4 8 -15 6 -11 -2 -18 0 -15 5 3
5 -4 7 -15 5 -17 -3 -19 -1 -10 16 13 24 22 25 13 2 -6 -16 -5 -16 11 -4 9 8
16 10 14 5 -2 -5 2 -11 7 -12 6 -2 16 -9 24 -15 12 -10 13 -9 8 7 -6 16 -5 17
7 7 12 -10 13 -16 3 -26 -7 -7 -14 -9 -17 -5 -3 4 -11 1 -19 -8 -12 -13 -12
-14 0 -10 8 3 23 -2 34 -11 18 -15 19 -15 7 1 -7 9 -9 18 -5 21 11 7 33 -19
25 -29 -4 -5 1 -2 11 5 15 12 20 9 19 -9 0 -5 23 -5 61 -1 4 1 7 6 7 12 0 8
-4 8 -14 0 -11 -9 -17 -8 -28 2 -7 8 -21 13 -30 11 -9 -1 -19 5 -23 14 -3 9
-3 13 1 9 4 -4 13 -2 21 5 11 9 12 7 7 -7 -5 -12 -4 -16 3 -12 6 4 16 0 23 -8
9 -11 16 -12 26 -4 10 8 17 2 33 -28 12 -21 19 -29 18 -18 -1 11 -6 25 -9 31
-4 6 -1 11 7 11 8 0 13 -5 12 -11 -1 -5 4 -11 11 -12 6 -1 17 -2 22 -3 16 -2
12 -18 -5 -18 -8 0 -11 5 -8 10 3 6 1 7 -5 3 -7 -4 -12 -11 -12 -17 0 -14 40
-5 51 12 7 12 9 12 9 -2 0 -8 -6 -21 -12 -29 -10 -11 -9 -11 6 0 18 14 19 13
13 -3 -4 -11 -3 -16 4 -12 6 4 8 13 5 21 -3 7 -1 16 5 19 5 4 7 11 4 16 -4 5
2 6 11 2 11 -4 13 -8 6 -11 -7 -2 -9 -8 -6 -13 4 -6 10 -6 18 0 9 8 13 7 13
-4 0 -8 -5 -11 -10 -8 -6 3 -7 1 -3 -5 4 -7 3 -12 -3 -12 -5 0 -12 6 -14 13
-4 9 -6 9 -6 0 -1 -7 8 -17 19 -23 15 -8 26 -7 46 7 34 22 51 24 51 8 0 -7 -8
-12 -19 -10 -20 4 -25 -10 -5 -18 14 -5 43 12 46 28 2 6 5 12 8 15 2 3 3 -2 1
-10 -2 -8 3 -14 10 -12 9 2 11 -2 6 -10 -5 -7 -9 -22 -11 -33 -1 -11 1 -15 3
-8 3 7 11 10 19 7 7 -3 16 0 20 6 6 9 10 9 16 -1 6 -10 9 -11 9 -1 0 6 5 12
10 12 12 0 9 -22 -5 -33 -6 -5 -4 -7 5 -4 8 2 14 10 12 16 -4 19 15 12 32 -12
l17 -22 -12 25 c-7 14 -17 28 -23 32 -8 6 -8 8 1 8 6 0 21 -12 33 -27 12 -16
19 -21 17 -12 -3 9 4 21 16 29 20 12 21 12 8 -3 -11 -14 -11 -20 -1 -32 6 -8
15 -14 18 -13 4 0 9 -1 12 -2 24 -9 38 -6 33 7 -4 10 -8 11 -13 4 -4 -7 -11
-1 -19 15 -6 15 -10 29 -7 31 2 2 7 -5 11 -16 3 -12 10 -19 15 -16 11 7 42
-24 35 -35 -3 -5 3 -7 12 -5 10 1 28 -4 41 -11 16 -11 21 -11 20 -2 -4 15 22
18 41 4 10 -8 13 -8 9 -1 -4 6 2 17 14 24 11 7 17 8 13 2 -11 -19 23 -12 35 7
10 14 11 14 6 0 -7 -22 4 -30 22 -15 10 8 13 8 9 1 -4 -7 0 -15 9 -18 14 -5
14 -9 3 -24 -13 -15 -12 -16 4 -3 9 7 17 9 17 3 0 -18 33 -6 36 13 4 26 17 36
34 24 12 -9 12 -10 -3 -5 -12 4 -17 2 -15 -6 6 -16 28 -18 47 -4 11 8 13 8 7
-1 -4 -7 -2 -13 3 -13 6 0 11 6 12 13 0 6 5 2 11 -10 12 -26 16 -27 53 -13 16
6 23 14 19 22 -4 7 -3 8 4 4 8 -5 9 -13 3 -25 -7 -13 -6 -18 4 -18 8 0 12 4
10 8 -3 4 2 9 10 12 8 4 16 -2 20 -14 7 -21 20 -25 31 -7 5 7 3 8 -6 3 -9 -5
-11 -4 -6 3 4 7 2 12 -3 12 -6 0 -11 5 -11 12 0 6 11 1 25 -12 19 -18 28 -20
38 -12 8 7 17 9 20 5 4 -3 13 -1 21 6 17 14 29 -8 20 -36 -5 -15 -4 -16 5 -3
6 8 11 10 11 5 0 -14 38 -17 45 -4 4 5 14 9 23 9 15 0 15 -2 2 -11 -13 -9 -13
-10 0 -6 9 2 15 14 14 29 -1 34 26 32 38 -3 6 -18 16 -27 28 -26 19 1 18 12
-1 12 -5 0 -9 3 -9 8 0 4 0 10 0 13 0 4 7 1 16 -7 13 -10 17 -10 25 2 6 10 9
11 9 1 0 -7 5 -10 10 -7 6 4 8 11 4 16 -3 6 3 5 14 -2 17 -11 18 -15 6 -26 -8
-8 -14 -17 -14 -21 0 -3 5 -1 12 6 17 17 28 15 22 -5 -5 -15 -4 -15 4 -3 6 8
9 17 6 21 -5 8 14 22 34 25 6 1 9 -3 5 -9 -4 -7 0 -8 11 -4 10 4 15 3 11 -3
-3 -6 -2 -10 4 -10 6 0 9 -6 7 -12 -1 -7 -1 -10 1 -5 3 4 10 4 15 1 7 -5 8 -2
3 6 -6 10 -4 12 9 7 10 -4 20 -7 23 -7 3 0 -1 -8 -8 -17 -13 -16 -12 -17 3 -5
17 14 18 28 3 52 -7 12 -6 13 6 3 12 -10 20 -9 40 4 23 16 23 16 9 -2 -14 -17
-13 -18 3 -12 24 9 21 0 -4 -14 -15 -8 -19 -8 -15 0 4 6 3 11 -3 11 -5 0 -13
-4 -16 -10 -3 -5 -1 -10 5 -10 6 0 8 -5 4 -12 -5 -8 -1 -8 10 1 15 13 19 13
28 0 8 -11 9 -11 5 3 -9 26 20 30 64 9 21 -11 36 -15 33 -10 -3 6 9 8 30 6 19
-2 33 -1 31 4 -3 4 7 6 22 4 16 -1 27 -8 25 -14 -1 -8 4 -7 18 1 11 7 20 17
20 22 0 4 -6 3 -14 -3 -8 -7 -17 -8 -20 -3 -3 6 4 13 17 17 35 11 62 10 59 -3
-1 -7 5 -12 14 -12 9 0 12 -5 8 -12 -6 -10 -4 -10 7 -3 17 12 39 13 58 1 9 -6
12 -5 8 1 -4 6 0 14 9 17 22 9 26 8 18 -6 -4 -7 -3 -8 5 -4 9 6 9 11 1 21 -8
10 -8 15 0 20 6 4 14 4 17 1 4 -3 1 -6 -5 -6 -27 0 11 -35 39 -36 26 -2 28 0
12 11 -9 7 -24 10 -33 7 -12 -4 -13 -2 -3 8 10 11 15 11 28 0 8 -7 15 -9 15
-4 0 5 7 1 14 -9 12 -16 14 -15 26 13 7 17 15 29 17 26 3 -2 0 -13 -6 -25 -8
-13 -8 -22 -1 -26 6 -4 10 -3 9 2 -3 19 2 23 19 14 12 -6 23 -6 33 1 11 8 10
9 -4 4 -11 -3 -16 -2 -12 4 3 6 13 10 21 10 10 0 12 5 8 13 -9 13 26 -11 38
-28 4 -5 8 1 8 14 l0 24 24 -26 c20 -21 25 -23 30 -11 9 23 7 27 -9 21 -19 -8
-30 12 -16 26 9 9 11 8 6 -5 -5 -13 -2 -15 14 -11 20 5 26 -5 22 -30 -1 -5 3
-6 8 -3 5 4 8 15 6 26 -2 11 1 23 7 26 7 4 8 2 4 -4 -4 -7 -3 -12 3 -12 5 0
12 4 15 9 7 10 25 9 43 -2 7 -4 16 0 21 9 8 15 10 15 15 0 5 -11 3 -15 -5 -10
-6 4 -8 3 -5 -3 7 -11 -32 -11 -49 0 -7 4 -18 -1 -25 -10 -12 -14 -11 -15 11
-8 23 7 24 7 10 -11 -13 -17 -12 -17 9 1 26 22 30 23 42 3 6 -9 9 -10 9 -1 0
7 7 10 18 7 10 -4 13 -2 7 3 -5 4 -11 18 -11 30 -1 19 1 20 17 10 11 -7 19
-16 19 -21 0 -4 -8 -2 -17 5 -15 11 -14 10 1 -9 21 -25 27 -27 24 -11 -2 6 3
14 11 17 8 2 11 0 8 -5 -3 -5 0 -10 8 -10 10 0 12 4 5 12 -5 7 -6 16 -2 20 4
5 -1 5 -10 2 -10 -3 -20 -2 -22 2 -3 5 5 8 17 7 12 -1 21 -7 20 -13 -1 -6 4
-14 12 -17 9 -3 12 0 8 10 -4 10 0 12 10 8 9 -3 13 -12 10 -20 -3 -8 0 -14 6
-14 6 0 10 3 10 8 -3 19 2 25 11 12 14 -21 13 5 -1 33 -9 20 -9 20 4 5 18 -23
31 -23 23 -2 -5 14 -4 15 9 4 18 -15 20 -31 4 -28 -6 2 -14 -4 -16 -12 -4 -13
-3 -13 6 0 6 8 11 11 11 6 0 -5 6 -3 13 3 8 6 16 8 20 5 3 -3 15 -1 26 6 16 8
21 8 21 -2 1 -9 4 -8 10 3 6 11 22 15 54 13 26 -1 46 1 46 5 0 14 35 8 48 -8
11 -14 11 -14 5 3 -4 13 -3 17 5 12 18 -11 14 0 -5 15 -14 12 -16 12 -8 0 5
-9 4 -12 -3 -7 -13 8 -5 36 10 36 5 0 6 -5 2 -12 -5 -8 -2 -9 10 -5 9 4 14 3
11 -2 -3 -5 0 -13 6 -17 8 -4 9 -3 5 4 -4 7 -2 12 4 12 6 0 9 4 6 8 -2 4 -1
14 5 22 6 11 8 5 5 -17 -2 -18 1 -30 5 -27 5 3 9 13 9 23 0 14 6 17 25 13 14
-2 22 -8 19 -13 -3 -5 0 -9 5 -9 6 0 11 4 11 9 0 5 9 12 19 16 11 3 18 13 16
23 -1 9 0 12 2 5 2 -6 11 -14 20 -17 10 -4 14 -2 10 8 -3 8 4 22 16 33 l22 18
-19 -22 c-20 -24 -10 -32 13 -10 8 6 11 8 9 2 -3 -5 0 -16 8 -23 8 -7 14 -8
14 -2 0 5 4 9 9 8 8 -3 11 2 11 18 0 4 -7 1 -15 -6 -10 -9 -15 -9 -15 -1 0 6
5 11 11 11 5 0 7 5 3 11 -3 6 4 4 17 -4 24 -15 92 -18 97 -4 7 20 0 29 -10 14
-12 -16 -14 -16 -27 5 -13 21 -13 22 2 10 13 -11 17 -10 26 5 6 11 11 13 11 5
0 -7 5 -10 12 -6 6 4 8 3 4 -4 -3 -6 1 -9 11 -8 10 2 24 -4 31 -13 11 -14 12
-13 2 6 -9 21 -8 22 20 18 17 -2 28 0 25 6 -4 5 -2 9 4 9 5 0 12 -6 14 -12 4
-10 6 -10 6 0 1 7 5 10 11 7 6 -3 7 1 3 10 -5 13 -7 14 -14 3 -7 -11 -9 -10
-9 1 0 11 -4 10 -19 -3 -20 -18 -42 -14 -40 7 0 9 2 9 6 0 2 -7 9 -13 14 -13
6 0 7 5 3 12 -4 6 -3 8 4 4 6 -3 15 2 21 11 6 10 11 12 11 5 0 -6 3 -11 8 -11
4 1 9 1 12 -1 21 -8 50 -8 55 0 4 6 -1 7 -11 3 -13 -5 -15 -3 -9 8 8 12 6 12
-8 0 -11 -9 -17 -10 -17 -2 0 18 50 17 61 -1 3 -5 9 -2 12 7 4 9 3 14 -1 11
-4 -2 -16 3 -27 11 -16 13 -17 15 -2 10 10 -4 17 -1 17 6 0 7 3 8 8 2 4 -5 13
-10 20 -11 29 -2 33 -5 26 -16 -4 -7 -3 -8 5 -4 6 4 9 12 6 17 -4 5 1 9 10 9
9 0 13 -5 9 -11 -3 -6 5 -3 19 6 15 9 31 14 38 10 8 -5 8 -1 -1 15 -6 12 -9
24 -6 28 3 3 6 1 6 -5 0 -15 38 -23 44 -9 3 7 8 6 16 -4 9 -12 10 -11 5 7 -5
19 -3 22 11 16 12 -4 15 -3 10 5 -4 7 -3 19 2 28 8 14 10 14 15 1 5 -13 10
-14 31 -4 29 14 29 34 0 29 -15 -2 -16 -1 -4 7 9 6 19 6 26 1 6 -6 13 -8 16
-5 2 3 5 -2 5 -10 0 -8 -4 -15 -9 -15 -4 0 -8 -4 -8 -10 0 -5 4 -10 9 -10 10
0 27 39 23 53 -1 4 11 1 28 -8 23 -12 30 -12 28 -3 -2 8 6 13 19 12 15 -1 20
3 16 13 -5 12 -7 12 -14 1 -5 -7 -9 -9 -9 -4 0 5 -7 3 -15 -4 -13 -11 -14 -10
-10 3 9 21 43 28 59 11 18 -17 32 -19 19 -1 -7 8 -4 21 9 42 18 27 19 21 3
-18 -4 -8 1 -14 9 -14 8 0 13 4 10 8 -7 12 19 49 33 49 7 0 13 -5 13 -11 0 -5
-4 -8 -9 -5 -5 3 -14 -1 -20 -8 -9 -10 -9 -16 -1 -21 6 -4 10 -3 9 2 -3 18 1
28 9 18 4 -7 17 -1 32 14 14 13 19 21 13 17 -7 -4 -21 -3 -30 3 -13 7 -4 9 33
6 55 -3 88 7 59 18 -9 4 -14 3 -10 -3 7 -11 -31 -8 -40 3 -3 4 -2 5 1 2 9 -6
45 15 40 23 -2 4 11 8 29 8 19 0 32 -3 29 -8 -3 -5 -10 -6 -15 -3 -5 4 -17 2
-26 -4 -15 -8 -12 -10 13 -9 19 1 36 8 43 20 6 10 8 18 4 17 -20 -3 -33 2 -33
13 0 9 3 9 11 1 8 -8 18 -4 37 14 14 13 31 21 39 19 7 -3 19 4 26 15 13 18 15
18 21 3 4 -9 9 -14 12 -11 3 3 1 16 -6 29 l-11 23 21 -24 c11 -13 18 -31 16
-38 -4 -8 -1 -11 5 -8 6 4 8 14 5 22 -4 10 -2 13 8 10 10 -4 13 -1 10 8 -3 8
-10 13 -14 12 -4 -1 -7 2 -6 8 0 5 6 9 12 7 6 -1 17 4 24 13 9 11 17 12 30 5
19 -10 39 4 26 17 -3 4 -6 1 -6 -6 0 -7 -5 -9 -10 -6 -6 4 -5 12 4 21 16 16
30 19 21 5 -3 -5 9 -8 27 -7 32 2 47 28 28 51 -5 6 -5 17 0 25 7 10 10 11 10
2 0 -6 4 -11 9 -10 5 2 9 -1 9 -7 0 -5 -5 -8 -12 -7 -6 2 -8 0 -3 -4 4 -4 16
-8 26 -9 20 -2 19 16 -2 42 -6 9 -6 13 1 13 6 0 14 -9 17 -20 6 -18 8 -18 21
-5 9 8 20 12 26 9 7 -5 8 -2 3 6 -6 10 -3 12 13 8 15 -4 19 -2 15 9 -3 7 -8
11 -11 9 -3 -3 -12 0 -20 7 -13 10 -15 9 -9 -5 4 -12 -1 -21 -16 -29 -12 -7
-19 -8 -15 -4 4 5 2 15 -4 24 -10 13 -10 14 2 4 19 -17 35 -16 21 1 -9 10 -8
15 3 19 9 4 18 2 21 -4 4 -5 11 -7 16 -3 6 3 3 11 -6 18 -15 10 -14 12 4 12
11 0 17 -4 15 -8 -3 -4 0 -8 6 -8 6 0 9 -4 6 -8 -3 -5 1 -9 9 -9 8 0 13 5 12
11 -1 6 4 10 12 8 12 -3 12 0 2 12 -11 13 -10 17 3 22 9 3 23 4 30 1 11 -4 13
-1 9 11 -6 15 -5 16 13 2 18 -14 18 -14 5 3 -11 14 -17 15 -30 5 -9 -7 -13 -8
-9 -4 4 5 3 15 -3 22 -7 8 -7 14 1 19 6 4 9 1 8 -7 -2 -8 5 -12 20 -10 12 2
22 -2 22 -7 0 -6 5 -11 12 -11 6 0 3 10 -8 21 -19 22 -19 22 4 10 13 -7 26
-10 30 -7 3 3 0 6 -7 6 -7 0 -9 5 -6 10 4 6 11 7 17 4 7 -4 8 -2 4 5 -6 9 -11
9 -21 1 -10 -8 -15 -8 -21 2 -4 7 -4 10 0 6 11 -9 46 24 39 36 -4 6 1 5 10 -3
14 -11 18 -11 23 2 3 10 12 13 22 9 15 -5 16 -4 2 13 -14 17 -14 18 8 6 18 -9
22 -9 20 1 -2 8 6 13 18 12 14 0 20 4 17 13 -3 7 -10 13 -17 13 -6 0 -3 5 7
11 13 8 22 7 32 -1 10 -8 15 -8 21 1 4 8 3 9 -4 5 -7 -4 -12 -2 -12 3 0 6 0
14 0 18 -1 6 19 13 47 15 7 1 10 5 7 10 -3 5 -14 6 -25 3 -11 -4 -19 -2 -19 5
0 6 4 9 9 6 10 -7 53 29 45 37 -3 3 6 4 20 3 25 -3 37 8 17 16 -5 2 -2 10 7
18 14 13 15 12 9 -3 -3 -9 -2 -19 3 -22 6 -4 10 1 10 9 0 16 10 20 40 17 13
-2 13 -1 0 8 -8 5 -18 7 -22 5 -4 -3 -16 0 -25 6 -14 8 -14 10 -3 9 29 -3 41
1 35 11 -4 6 1 7 11 3 13 -5 15 -3 10 8 -4 8 0 5 9 -6 16 -19 16 -19 13 -1 -2
10 3 21 11 24 9 3 11 0 6 -8 -5 -8 -4 -11 3 -7 5 4 8 16 5 26 -3 10 1 22 8 26
8 5 10 4 5 -3 -4 -7 -2 -12 3 -12 6 0 11 5 11 11 0 11 31 46 37 42 2 -2 3 0 2
3 0 3 8 12 18 21 10 8 12 12 6 8 -7 -3 -21 -1 -30 5 -14 8 -14 10 -3 9 8 -1
29 -1 45 0 22 1 26 4 15 10 -8 6 -18 7 -22 5 -15 -9 -8 3 9 17 13 11 15 11 9
1 -6 -9 -1 -12 18 -10 14 2 29 8 33 13 4 4 2 5 -6 0 -9 -5 -12 -3 -9 6 3 8 11
14 19 14 8 0 15 10 15 22 1 12 -2 20 -7 17 -4 -2 -6 -12 -3 -22 5 -13 4 -14
-4 -3 -7 9 -12 10 -16 2 -4 -6 -12 -11 -19 -11 -6 0 -1 7 11 16 12 8 19 20 16
26 -4 7 -2 8 4 4 7 -4 12 -1 12 6 1 7 7 2 14 -11 11 -19 14 -21 19 -7 3 8 2
18 -3 21 -17 11 -11 19 35 48 25 16 45 35 45 44 0 8 -5 11 -10 8 -6 -4 -8 -10
-5 -15 3 -4 -4 -6 -16 -3 -20 5 -20 6 3 18 14 7 30 9 41 3 9 -5 17 -5 16 -1
-4 22 3 31 21 28 11 -2 19 1 17 8 -1 7 4 11 11 9 9 -1 7 6 -5 25 l-17 28 24
-20 c13 -11 20 -15 17 -8 -4 6 -4 13 0 16 5 2 3 3 -3 1 -7 -1 -11 9 -10 25 0
15 6 28 13 28 7 0 10 -4 7 -9 -6 -10 10 -11 19 -1 4 3 2 12 -4 19 -15 18 6 28
31 14 16 -9 19 -8 13 7 -5 13 -3 15 11 10 10 -4 15 -3 11 4 -4 5 -16 7 -28 4
-12 -2 -17 -2 -10 1 7 3 9 13 6 22 -3 10 -2 13 4 6 14 -18 43 -25 36 -9 -3 8
-10 12 -17 8 -7 -4 -7 -1 1 9 7 8 9 19 5 23 -4 5 -1 5 7 0 10 -6 12 -2 6 16
-7 24 -7 24 10 4 16 -20 16 -20 12 2 -3 13 -2 25 2 28 4 2 8 -2 9 -10 1 -8 3
-22 4 -30 3 -26 11 -6 13 30 0 19 -3 35 -9 35 -5 0 -7 3 -4 6 4 3 15 1 26 -5
15 -8 21 -7 26 4 3 8 11 13 18 11 7 -1 10 -1 6 1 -5 3 -8 12 -8 21 0 8 -3 12
-7 8 -5 -4 -8 -12 -8 -17 0 -5 -3 -9 -7 -9 -5 0 -14 0 -20 0 -7 0 -2 7 10 16
12 8 19 21 16 27 -4 7 6 1 22 -13 16 -14 26 -21 22 -16 -4 5 3 17 15 27 12 10
16 18 10 19 -7 0 -13 -4 -13 -9 0 -15 -28 -20 -34 -6 -3 10 0 12 12 9 14 -5
13 -2 -3 11 -20 17 -20 17 4 10 18 -6 22 -4 15 6 -6 11 -5 11 9 0 16 -12 17
-12 10 5 -6 17 -5 18 13 4 19 -14 19 -14 0 8 -19 22 -16 26 17 23 19 -2 23 14
5 25 -7 4 -8 3 -4 -4 5 -8 1 -10 -10 -5 -15 5 -15 7 0 15 9 5 21 6 26 3 6 -3
10 1 10 10 0 9 4 14 9 11 10 -7 9 26 -1 34 -4 3 3 12 15 19 20 13 21 13 8 -3
-12 -14 -12 -16 3 -10 9 3 16 15 16 26 0 12 5 17 13 13 6 -4 1 2 -12 13 -18
14 -21 21 -11 27 8 5 11 4 7 -2 -4 -6 0 -14 9 -17 24 -9 28 -7 15 8 -8 10 -9
16 -1 21 6 3 8 10 5 15 -3 5 -1 11 4 14 17 11 22 -12 5 -28 -8 -9 -11 -16 -5
-16 6 0 14 0 18 0 10 -1 14 32 6 50 -3 8 -7 23 -8 32 -2 17 -1 17 15 0 12 -12
14 -19 6 -24 -7 -5 -7 -8 2 -8 8 0 10 -5 6 -12 -4 -7 -3 -9 2 -5 11 10 14 58
2 51 -4 -3 -8 0 -8 5 0 6 5 12 10 12 6 1 14 2 19 3 5 0 13 5 18 10 5 5 2 6 -6
1 -9 -5 -12 -3 -9 6 3 8 11 13 18 11 10 -2 11 0 2 11 -7 8 -9 17 -5 20 3 4 1
7 -6 7 -8 0 -11 -7 -6 -17 5 -14 4 -15 -6 -6 -9 9 -8 17 5 37 20 31 20 40 1
33 -8 -4 -16 -3 -19 1 -2 4 6 9 19 10 32 2 43 -18 20 -35 -11 -7 -14 -13 -8
-13 20 0 36 29 24 43 -6 8 -7 17 -3 22 4 4 -4 5 -18 1 -14 -3 -19 -3 -12 0 6
3 12 12 12 20 0 8 -6 14 -12 14 -7 0 1 9 17 20 17 11 24 20 17 20 -7 0 -11 4
-8 8 3 5 -1 9 -9 9 -10 0 -12 -4 -5 -12 7 -9 6 -14 -3 -18 -9 -3 -13 2 -11 16
1 12 -5 32 -12 45 -8 12 -11 22 -6 22 4 0 9 18 9 40 0 22 -3 40 -8 40 -5 0 -6
8 -3 17 5 15 4 16 -5 3 -10 -14 -16 -7 -12 13 1 5 -3 6 -9 2 -14 -9 -13 -11
12 -35 16 -15 18 -20 6 -20 -23 0 -39 45 -27 77 11 31 2 25 -15 -8 -11 -22
-31 -28 -31 -9 0 6 -6 15 -14 19 -9 6 -10 11 -2 15 6 4 11 2 11 -5 0 -8 4 -8
15 1 15 12 12 30 -6 30 -5 0 -19 -10 -31 -22 -23 -23 -23 -24 -1 30 3 7 2 12
-3 11 -22 -4 -35 2 -28 13 4 6 3 8 -4 4 -6 -3 -15 1 -20 11 -8 14 -14 15 -35
6 -18 -9 -27 -9 -36 0 -8 8 -11 8 -11 -1 0 -7 -4 -12 -8 -12 -5 0 -9 7 -9 15
0 8 4 12 9 9 4 -3 8 0 8 6 0 6 -8 10 -17 9 -45 -4 -54 0 -43 20 6 12 6 22 1
25 -13 8 -6 42 8 38 16 -3 -9 36 -28 43 -11 4 -11 3 -2 -9 9 -10 9 -16 1 -21
-8 -5 -7 -11 2 -23 10 -12 10 -14 1 -8 -7 4 -13 3 -13 -3 0 -5 8 -15 18 -20 9
-6 12 -11 6 -11 -15 0 -39 29 -31 37 4 3 2 15 -4 26 -8 15 -8 18 1 12 9 -5 10
-1 5 14 -6 19 -3 21 19 17 18 -3 23 -1 19 9 -3 10 1 13 17 10 16 -3 19 -1 11
8 -6 8 -6 18 -1 27 5 9 5 19 -2 27 -6 7 -8 13 -4 13 4 0 0 13 -8 29 -12 22
-12 31 -3 40 9 9 8 14 -3 21 -10 6 -11 10 -3 10 7 0 10 6 7 14 -3 7 2 16 10
19 9 4 13 15 11 26 -3 15 0 18 13 14 15 -6 15 -5 3 10 -8 10 -11 20 -8 24 4 3
2 12 -5 20 -8 11 -7 12 5 7 16 -6 18 10 4 33 -8 13 8 26 38 30 15 2 16 1 6 -6
-8 -5 -10 -14 -6 -21 6 -9 4 -11 -5 -5 -9 5 -11 4 -6 -3 4 -7 2 -12 -5 -12 -7
0 -4 -7 7 -15 16 -13 16 -14 2 -9 -11 4 -18 1 -18 -7 0 -7 3 -9 6 -6 4 3 15 2
26 -4 17 -9 18 -8 9 10 -9 16 -8 22 6 29 14 9 15 13 4 26 -7 9 -10 16 -6 16 4
0 2 6 -4 13 -6 8 -8 17 -4 20 3 4 1 7 -5 7 -7 0 -12 -4 -12 -10 0 -5 -5 -10
-11 -10 -8 0 -8 4 0 14 9 11 9 15 -1 19 -10 4 -10 6 0 6 6 1 12 8 12 17 0 9
-5 12 -12 8 -10 -6 -10 -4 0 7 14 16 16 33 2 24 -6 -4 -7 1 -3 11 4 11 8 13
11 6 2 -7 8 -10 12 -7 5 3 7 13 4 23 -5 13 -4 14 4 3 8 -11 10 -11 14 0 3 8
-2 20 -9 27 -8 8 -10 19 -6 26 10 14 10 37 0 53 -4 6 -1 18 7 25 10 11 11 19
4 32 -6 10 -6 21 -2 25 5 3 9 12 9 20 0 8 6 16 13 19 6 2 12 -1 12 -8 0 -6 -4
-8 -10 -5 -5 3 -10 1 -10 -5 0 -7 6 -10 13 -7 6 2 11 13 10 25 -1 11 5 23 15
27 13 5 14 3 5 -6 -6 -6 -9 -18 -6 -25 9 -23 18 -16 19 16 2 28 0 30 -30 25
-17 -3 -26 -2 -21 2 15 12 18 35 5 43 -8 5 -6 9 5 13 9 4 13 3 10 -3 -3 -6 -1
-10 4 -10 12 0 15 23 4 33 -3 4 -11 2 -18 -3 -8 -7 -12 -5 -12 5 0 8 5 11 10
8 6 -4 8 1 4 11 -4 9 -3 14 2 11 5 -3 12 -1 16 5 6 10 -5 13 -35 11 -10 0 -11
1 -2 5 6 3 10 10 7 15 -4 5 2 6 12 2 10 -3 15 -3 11 2 -4 4 -2 15 5 23 10 13
9 15 -6 9 -10 -4 -16 -3 -12 2 3 5 -1 12 -7 14 -8 3 -6 6 5 6 10 1 16 5 12 10
-3 5 -1 12 5 16 13 8 13 35 0 35 -5 0 -9 -3 -7 -7 1 -5 -2 -9 -8 -10 -15 -4
-13 39 2 62 18 27 16 35 -4 29 -14 -5 -15 -4 -4 4 8 6 9 12 3 16 -11 7 -11 24
1 44 5 6 5 18 0 25 -13 21 -13 41 0 28 16 -16 32 -14 18 3 -6 7 -8 22 -4 32 6
16 4 17 -8 7 -13 -10 -16 -10 -16 2 0 8 4 12 9 9 4 -3 8 0 8 5 0 6 -6 11 -12
11 -7 1 -2 8 12 16 14 8 17 13 8 10 -18 -5 -32 6 -21 18 4 3 17 -1 31 -10 23
-15 24 -15 18 8 -3 12 -3 17 0 11 8 -18 21 -16 28 3 3 8 2 12 -4 9 -6 -3 -10
-1 -10 4 0 6 5 11 11 11 6 0 8 9 4 20 -4 14 -1 22 10 26 14 6 14 9 -2 28 -14
16 -15 18 -1 8 13 -10 17 -10 21 0 4 10 6 10 6 1 1 -7 6 -13 12 -13 6 0 9 6 6
14 -4 9 2 14 19 14 14 0 21 -5 17 -11 -3 -5 -1 -7 5 -4 5 4 8 16 5 27 -5 17
-8 18 -22 8 -15 -12 -15 -11 -1 6 8 11 14 22 13 25 -1 3 1 8 4 11 4 3 3 0 0
-6 -12 -20 20 -38 46 -26 l22 11 -24 -2 c-14 -1 -26 4 -28 13 -4 13 -3 13 6 0
6 -8 11 -12 12 -7 1 4 3 12 4 17 1 6 3 15 4 20 2 16 18 12 18 -5 0 -8 -5 -11
-10 -8 -6 3 -7 1 -3 -5 4 -6 14 -8 22 -5 13 5 13 7 2 14 -10 7 -8 9 7 9 18 1
18 2 -2 10 -16 7 -21 14 -16 26 5 13 3 15 -7 9 -8 -5 -11 -4 -6 3 4 6 13 9 21
6 9 -4 13 1 12 15 -1 15 -6 20 -17 16 -11 -5 -12 -3 -3 6 6 6 20 9 30 5 10 -4
13 -10 7 -14 -5 -4 -9 -17 -8 -29 1 -12 -2 -20 -7 -18 -4 3 -10 2 -13 -3 -2
-4 4 -8 13 -9 14 -1 19 6 19 25 -1 14 5 28 11 30 6 2 11 8 11 13 0 6 -4 8 -9
5 -5 -3 -12 4 -16 17 -9 26 -9 27 1 51 4 12 4 17 -2 13 -5 -3 -10 3 -10 13 0
10 3 17 6 15 3 -2 16 3 30 11 23 14 23 14 3 9 -14 -4 -23 -2 -23 4 0 6 6 11
14 11 8 0 18 4 21 10 4 6 -4 9 -17 7 -17 -1 -23 3 -23 18 0 11 -4 27 -9 34 -5
8 6 4 25 -9 28 -20 31 -21 19 -5 -19 26 -53 51 -63 47 -4 -1 -2 8 5 20 7 13
12 26 13 30 0 3 3 10 7 14 4 3 5 -3 3 -15 -2 -12 0 -19 6 -16 5 4 7 10 4 15
-3 4 1 11 7 13 10 4 10 6 1 6 -22 2 -36 40 -21 58 11 14 10 15 -12 10 -14 -4
-19 -4 -12 -1 6 3 12 10 12 15 0 6 -6 7 -12 3 -10 -6 -10 -5 -1 8 7 8 9 19 5
23 -4 5 -2 5 5 1 6 -3 14 -2 18 4 3 5 1 10 -6 10 -7 0 -9 3 -6 7 4 3 1 13 -6
21 -10 13 -9 15 8 8 16 -6 18 -5 8 5 -16 16 -17 33 -2 24 6 -4 5 2 -3 14 -7
12 -17 21 -22 21 -4 0 -4 -6 2 -13 8 -10 6 -13 -7 -13 -23 0 -23 24 1 32 13 4
17 12 14 29 -3 13 0 26 5 29 5 2 4 3 -3 2 -7 -2 -12 -8 -11 -14 2 -6 -4 -9
-12 -5 -13 4 -11 9 7 26 18 15 19 19 5 14 -12 -5 -20 -1 -24 11 -4 9 -14 23
-22 30 -13 11 -12 11 8 1 21 -10 23 -9 18 5 -4 10 -3 15 3 11 6 -3 10 -1 10 6
0 7 -8 9 -21 6 -14 -4 -18 -2 -11 6 5 7 8 20 7 30 -2 9 1 15 6 11 5 -3 6 -11
3 -17 -4 -7 -4 -9 1 -5 4 4 14 0 22 -10 13 -15 13 -15 3 5 -5 12 -14 25 -20
28 -5 3 -8 11 -6 18 1 7 1 9 -1 5 -3 -5 -10 -8 -15 -8 -6 0 -9 3 -5 6 3 4 -1
20 -9 36 -9 17 -11 27 -5 24 6 -4 11 -2 11 4 0 6 4 9 8 6 5 -3 9 1 9 9 0 8 -4
12 -9 9 -4 -3 -8 2 -8 10 0 23 4 31 13 28 5 -1 5 2 2 8 -5 8 -13 5 -26 -6 -19
-17 -20 -17 -13 1 5 11 4 16 -3 12 -5 -3 -10 0 -10 8 0 8 4 12 9 9 4 -3 8 0 8
5 0 6 -4 11 -10 11 -5 0 -10 5 -10 11 0 5 5 7 10 4 6 -3 10 -1 10 5 0 6 4 9 9
5 5 -3 12 -1 16 4 3 6 -5 8 -20 5 -28 -5 -34 10 -9 20 15 6 15 8 0 24 -12 15
-13 21 -3 32 7 8 8 11 1 7 -7 -4 -14 0 -18 8 -3 8 -1 15 4 15 5 0 7 7 4 15 -4
8 -10 15 -14 15 -7 0 -6 -23 4 -67 3 -13 1 -25 -3 -28 -5 -2 -8 3 -8 13 0 33
-3 43 -11 38 -5 -3 -9 1 -9 9 0 8 4 12 8 9 4 -2 7 5 6 16 -1 18 -10 24 -29 21
-15 -2 -8 17 8 23 24 9 31 7 14 -4 -10 -6 -11 -10 -2 -10 6 0 15 -1 19 -2 3
-2 7 5 9 14 1 10 -3 16 -9 15 -6 -1 -11 10 -11 25 1 15 -3 25 -7 22 -12 -7
-11 10 1 22 6 6 2 10 -13 11 -12 0 -16 -1 -9 -4 6 -3 10 -9 7 -14 -3 -5 -1
-17 4 -28 8 -14 7 -22 -7 -32 -15 -13 -16 -12 -4 3 7 9 9 19 4 22 -15 9 -20
54 -9 65 8 8 6 11 -6 11 -9 0 -17 5 -17 11 0 5 -5 7 -12 3 -7 -4 -8 -3 -4 4 5
9 13 9 26 2 14 -7 18 -6 16 5 -1 8 -5 17 -8 21 -4 3 -3 16 2 28 7 19 4 22 -19
23 -14 0 -18 -1 -9 -4 26 -7 20 -52 -5 -47 -11 2 -22 6 -26 10 -3 4 2 5 11 1
9 -3 19 0 22 9 5 13 -5 19 -26 15 -17 -2 -6 17 15 27 14 7 16 11 7 11 -13 1
-13 2 0 12 13 9 13 10 0 6 -8 -2 -14 -11 -12 -18 3 -11 1 -11 -9 -2 -9 10 -10
15 0 27 8 9 8 16 2 20 -6 4 -8 13 -5 20 3 8 0 17 -5 21 -6 3 -8 11 -5 17 4 7
2 8 -4 4 -7 -4 -12 -1 -12 8 0 10 6 13 18 10 14 -5 14 -4 2 4 -10 8 -18 8 -28
0 -9 -8 -16 -8 -25 2 -10 10 -9 12 4 7 9 -3 20 3 27 14 10 16 10 21 -4 26 -13
5 -13 8 -2 15 10 8 10 9 -2 5 -8 -2 -14 -10 -13 -16 2 -6 -2 -11 -7 -11 -6 0
-10 6 -9 13 4 34 -2 46 -21 42 -11 -2 -20 0 -20 6 0 14 40 5 51 -12 5 -8 9
-10 9 -6 0 4 -7 19 -16 32 -14 22 -19 39 -26 101 -1 7 -13 11 -28 10 -16 -1
-27 3 -27 11 0 6 4 10 8 8 3 -3 9 4 12 15 3 11 2 18 -2 17 -3 -1 -6 3 -6 8 0
6 4 9 8 7 5 -1 6 2 2 8 -5 8 -11 7 -21 -1 -11 -9 -12 -15 -3 -26 10 -11 9 -12
-5 -7 -22 8 -20 20 6 46 15 15 17 20 5 15 -9 -4 -25 -10 -34 -13 -15 -5 -16
-4 -3 5 11 8 12 11 2 11 -8 0 -10 5 -6 12 5 7 2 9 -9 5 -11 -4 -15 -1 -12 13
2 11 0 22 -5 25 -10 6 -1 45 12 45 5 0 6 5 3 10 -4 7 -14 3 -24 -9 -10 -11
-21 -18 -24 -15 -3 3 6 17 21 31 16 15 21 24 12 23 -30 -5 -40 0 -40 21 0 14
-5 19 -14 16 -8 -3 -20 2 -28 11 -12 15 -11 16 5 3 10 -8 17 -9 17 -3 0 18 26
3 38 -21 6 -12 11 -16 11 -9 1 7 -10 23 -22 35 -13 12 -23 32 -22 44 1 12 -2
20 -6 17 -4 -2 -13 4 -19 13 -10 16 -11 16 -5 -2 4 -11 8 -25 8 -32 0 -7 3
-10 7 -8 4 2 7 -2 7 -10 0 -13 -3 -13 -16 -1 -9 7 -22 11 -28 9 -7 -3 -13 0
-13 6 0 6 5 10 11 8 6 -1 14 4 17 12 2 8 0 11 -6 7 -6 -3 -14 -1 -18 5 -4 7
-3 9 3 6 6 -4 13 2 16 13 3 11 1 17 -4 14 -5 -3 -12 2 -15 10 -3 9 -9 14 -13
12 -4 -3 -13 -1 -20 3 -10 6 -9 10 4 14 10 4 14 3 9 -4 -4 -8 0 -7 15 0 11 7
21 14 21 17 0 3 -5 2 -10 -1 -6 -4 -18 -1 -26 6 -13 10 -12 14 3 33 14 16 14
18 2 8 -13 -10 -19 -10 -28 1 -6 8 -8 17 -4 20 6 7 4 8 -35 12 -24 2 -44 15
-24 15 7 0 12 4 12 10 0 5 -6 7 -14 4 -20 -8 -17 37 4 53 13 10 12 11 -5 10
-13 -1 -20 4 -19 15 1 10 -2 16 -6 13 -5 -3 -10 1 -13 7 -3 10 -8 9 -22 -2
-10 -8 -16 -10 -12 -3 4 6 2 13 -5 16 -7 2 -5 3 5 2 9 -2 17 1 17 7 0 5 5 6
12 2 7 -4 8 -3 4 4 -4 6 -14 8 -23 5 -10 -4 -14 -2 -9 5 3 6 2 13 -4 17 -6 4
-7 11 -4 17 4 7 2 8 -4 4 -7 -4 -12 -2 -12 3 0 6 5 11 12 11 18 0 3 10 -22 15
-12 2 -28 9 -34 15 -7 5 -16 7 -19 3 -4 -3 1 -12 11 -20 15 -13 15 -13 -6 -3
-12 6 -20 15 -17 20 3 4 2 10 -2 13 -5 2 -2 2 5 1 6 -2 12 3 12 11 0 11 -8 14
-29 10 -17 -3 -32 -1 -35 4 -3 4 6 7 20 5 18 -2 24 2 21 11 -3 7 -1 17 5 23 7
7 6 10 -5 8 -9 -1 -20 -6 -24 -11 -4 -4 -2 -5 6 0 10 6 12 4 6 -4 -13 -22 -28
4 -15 28 8 17 8 21 -2 19 -7 -2 -12 4 -10 12 2 8 0 11 -4 7 -11 -11 -14 -38
-3 -32 5 4 6 -2 2 -11 -4 -11 -8 -13 -11 -6 -2 7 -8 10 -12 7 -5 -3 -12 0 -16
6 -4 7 -3 9 4 5 6 -3 13 -2 17 4 3 6 -1 13 -9 16 -9 3 -16 11 -16 16 0 6 6 5
15 -2 10 -9 15 -9 15 -1 0 6 -5 11 -11 11 -6 0 -9 6 -6 14 4 11 -1 13 -19 10
-13 -2 -24 0 -24 6 0 5 6 10 14 10 20 0 29 17 15 26 -8 4 -9 3 -5 -4 5 -8 -3
-11 -25 -8 -18 2 -35 8 -37 15 -2 6 -8 9 -13 5 -5 -3 -9 -2 -8 3 4 21 -2 24
-18 12 -17 -13 -17 -12 -3 5 14 17 15 17 36 -7 19 -23 24 -24 35 -11 10 12 9
13 -6 8 -13 -5 -16 -4 -11 5 5 7 2 10 -6 9 -7 -2 -12 5 -12 14 2 17 -18 15
-43 -5 -9 -6 -13 -6 -13 0 0 6 10 15 23 21 20 11 20 12 2 11 -11 -1 -29 -1
-40 0 -16 1 -17 3 -5 11 9 6 17 5 23 -3 6 -8 7 -7 4 3 -2 8 -12 14 -21 14 -12
-2 -15 3 -11 20 5 17 4 18 -4 6 -7 -10 -11 -11 -11 -2 0 6 -5 12 -11 12 -5 0
-8 -4 -5 -8 3 -5 -1 -9 -9 -9 -8 0 -12 4 -9 8 2 4 -4 12 -13 18 -10 6 -12 11
-5 11 22 0 27 -2 25 -11 -2 -4 5 -5 14 -2 11 4 13 8 5 11 -7 2 -10 7 -7 12 3
5 -6 7 -20 5 -14 -1 -25 2 -25 7 0 5 -6 6 -12 2 -10 -6 -10 -4 0 7 6 7 12 17
12 21 0 4 -6 7 -12 6 -7 -2 -12 3 -10 11 2 11 0 12 -11 3 -11 -9 -18 -8 -31 7
-10 11 -16 24 -13 28 3 5 2 15 -4 23 -6 10 -9 11 -9 3 0 -7 -7 -13 -16 -13
-13 0 -14 3 -4 15 10 12 7 14 -19 10 -17 -2 -29 0 -26 5 5 8 -25 38 -32 32 -3
-2 -8 0 -11 4 -4 4 -1 4 6 0 8 -5 12 0 12 13 0 19 -10 26 -32 22 -5 0 -8 3 -8
9 0 5 -5 10 -12 10 -9 0 -9 -3 0 -12 15 -15 16 -28 2 -28 -6 0 -9 6 -8 13 2 6
-3 11 -10 9 -8 -1 -11 2 -7 7 6 10 -34 37 -48 33 -5 -1 -6 2 -2 8 4 6 1 18 -7
27 -9 12 -9 15 0 9 7 -4 12 -2 12 4 0 7 -7 10 -15 6 -19 -7 -45 3 -45 16 0 7
5 6 14 -1 10 -9 15 -8 19 2 7 18 -31 15 -44 -4 -7 -10 -8 -7 -3 11 6 21 5 23
-8 12 -13 -10 -17 -10 -22 4 -9 23 -7 31 4 14 5 -8 10 -10 10 -4 0 18 -12 25
-25 14 -9 -8 -12 -4 -10 15 2 14 -1 23 -6 20 -4 -3 -17 3 -29 15 -11 11 -20
16 -20 10 0 -17 5 -25 13 -22 4 1 7 -3 7 -9 0 -5 4 -8 9 -4 5 3 12 1 15 -4 11
-17 -14 -23 -30 -7 -9 9 -20 13 -26 10 -7 -5 -8 -2 -3 6 6 10 4 12 -9 7 -9 -4
-14 -3 -11 2 3 5 1 12 -5 16 -5 3 -10 12 -10 18 0 7 4 6 10 -3 5 -8 10 -10 10
-4 0 18 -12 24 -26 13 -8 -6 -11 -16 -7 -22 4 -6 1 -7 -6 -2 -9 5 -10 10 -2
18 6 6 11 16 11 21 0 6 -5 5 -12 -2 -7 -7 -17 -12 -22 -12 -6 0 -5 4 1 8 10 6
10 12 -1 28 -14 18 -15 18 -25 -6 -5 -14 -10 -19 -10 -12 -1 7 4 23 11 35 10
20 10 21 -5 8 -12 -9 -17 -10 -17 -2 0 7 -4 10 -9 6 -5 -3 -13 0 -17 6 -4 7
-3 9 3 6 6 -4 19 0 29 9 18 14 18 15 -3 5 -14 -7 -24 -7 -28 -1 -3 5 -13 6
-22 3 -11 -4 -14 -3 -9 5 5 8 2 10 -8 6 -11 -4 -14 0 -11 13 2 12 -2 20 -10
20 -8 0 -12 -4 -9 -9 3 -4 -1 -8 -9 -8 -10 0 -13 7 -10 20 5 21 -11 28 -22 10
-3 -5 -11 -10 -17 -10 -7 0 -6 5 1 14 9 10 9 16 1 21 -6 4 -14 4 -17 1 -4 -3
-1 -6 6 -6 7 0 9 -4 6 -10 -9 -15 -25 -12 -25 5 0 8 -5 15 -11 15 -6 0 -8 9
-4 23 5 19 5 20 -5 4 -9 -14 -9 -22 1 -33 9 -10 9 -18 2 -25 -8 -8 -11 -6 -10
7 1 10 -3 19 -10 19 -6 0 -14 3 -18 7 -4 4 -14 4 -23 1 -14 -4 -15 -3 -2 5 10
8 18 8 27 0 9 -7 13 -7 13 0 0 12 -29 24 -41 16 -12 -7 -11 9 1 24 6 6 7 10 4
7 -4 -3 -13 0 -21 6 -7 6 -13 8 -13 5 0 -4 -7 0 -16 8 -8 9 -20 14 -25 11 -5
-4 -9 -1 -9 5 0 6 -6 10 -12 9 -22 -4 -51 13 -38 21 8 5 7 9 -4 13 -9 4 -15 1
-13 -6 1 -7 -6 -11 -17 -9 -11 2 -15 -1 -11 -8 4 -7 -1 -7 -14 2 -12 7 -21 17
-21 22 0 4 8 2 18 -5 15 -12 16 -12 5 2 -10 12 -10 18 0 29 6 7 0 5 -14 -4
-14 -9 -29 -13 -32 -9 -4 3 -7 1 -7 -4 0 -6 6 -14 13 -16 9 -4 9 -6 0 -6 -21
-2 -27 22 -9 35 11 8 13 14 7 19 -6 3 -11 1 -11 -4 0 -12 -40 -15 -40 -3 0 4
-10 18 -21 32 l-21 25 17 -29 c9 -16 12 -25 5 -21 -7 4 -17 1 -22 -6 -8 -11
-8 -10 -4 4 3 10 -1 28 -9 40 -8 12 -15 16 -15 9 0 -20 4 -27 15 -24 6 2 4 -2
-3 -10 -11 -11 -14 -10 -22 2 -5 8 -7 24 -4 35 6 19 6 20 -8 1 -12 -15 -17
-16 -23 -6 -5 9 -4 11 3 6 7 -4 12 -2 12 4 0 6 -8 10 -17 8 -11 -2 -17 2 -15
10 2 10 -2 10 -18 2 -22 -12 -27 -22 -7 -15 17 7 41 -32 25 -41 -6 -4 -8 -3
-5 3 4 6 0 16 -8 23 -8 7 -15 10 -15 7 0 -3 -12 0 -27 8 -15 8 -31 11 -36 8
-6 -4 -7 -1 -2 7 5 8 3 11 -6 8 -8 -3 -13 -11 -11 -17 1 -7 -2 -10 -7 -7 -7 5
-8 21 -2 44 1 1 20 -7 44 -18 27 -13 35 -15 22 -5 -11 9 -20 20 -20 25 0 4 -4
12 -9 17 -5 5 -6 2 -1 -6 6 -11 3 -13 -13 -9 -11 3 -30 -1 -42 -9 -12 -8 -24
-12 -27 -9 -4 3 -1 6 6 6 7 0 10 4 6 10 -3 5 -12 7 -20 3 -8 -3 -15 -1 -15 5
0 11 18 11 37 -1 6 -4 15 -3 18 3 4 6 1 9 -7 8 -7 -2 -12 3 -10 10 1 6 -1 11
-5 10 -5 -1 -19 3 -33 10 -22 12 -23 11 -8 -1 10 -8 15 -17 11 -21 -3 -3 -14
1 -24 10 -13 12 -19 12 -25 3 -5 -8 -3 -10 7 -4 8 5 5 -1 -5 -13 -23 -26 -22
-26 -29 -8 -4 11 -1 13 11 10 14 -5 13 -2 -3 12 -17 14 -17 16 -2 11 9 -4 17
-3 17 2 0 5 -9 11 -20 14 -11 3 -18 1 -14 -4 3 -5 0 -9 -6 -9 -6 0 -9 -4 -6
-8 2 -4 -5 -9 -16 -9 -20 -2 -20 -1 -2 13 13 10 14 14 4 11 -8 -2 -25 0 -37 4
-16 6 -25 4 -31 -8 -6 -9 -12 -12 -16 -5 -11 19 52 35 67 17 5 -6 7 -4 4 5 -2
8 -11 14 -21 12 -9 -2 -16 2 -16 8 0 5 -5 10 -11 10 -5 0 -7 -4 -4 -10 3 -5 3
-10 -2 -11 -4 0 -16 -2 -25 -4 -10 -2 -16 0 -15 4 1 4 -13 20 -31 35 l-32 28
17 -30 c10 -17 21 -28 25 -26 4 3 5 -2 1 -12 -5 -14 -8 -13 -19 7 -8 14 -13
18 -14 10 0 -11 -4 -9 -14 5 -15 20 -37 25 -47 11 -3 -5 -9 -1 -12 8 -4 9 -3
13 3 10 6 -3 10 -1 10 4 0 14 -17 14 -25 0 -4 -6 -13 -8 -21 -5 -8 3 -14 0
-14 -6 0 -7 -7 -3 -15 8 -8 10 -14 24 -15 29 0 6 5 3 10 -5 5 -8 10 -10 10 -5
0 6 -5 17 -10 25 -8 12 -10 12 -10 1 0 -9 -10 -12 -34 -9 -34 4 -34 4 -19 -22
l15 -25 -21 25 c-19 23 -24 35 -23 51 1 3 -17 5 -39 4 -22 -1 -42 2 -45 6 -2
5 -12 5 -22 2 -15 -6 -16 -5 -2 12 14 18 14 18 -10 3 -14 -9 -33 -14 -43 -13
-11 2 -16 1 -12 -3 6 -6 30 -9 102 -14 17 -1 29 -6 27 -10 -3 -5 -10 -6 -15
-3 -5 4 -9 -1 -9 -10 0 -9 4 -14 9 -10 5 3 12 2 15 -3 3 -5 -2 -9 -11 -9 -9 0
-18 9 -21 19 -4 15 -7 16 -20 6 -12 -10 -14 -10 -8 0 11 18 -5 15 -21 -5 -13
-16 -13 -16 -3 4 10 21 8 23 -12 19 -13 -2 -22 -9 -20 -16 1 -6 -2 -9 -8 -5
-6 3 -8 10 -5 15 3 5 1 11 -5 15 -20 12 -11 33 13 29 20 -4 20 -4 2 5 -26 11
-38 4 -33 -23 3 -15 -1 -22 -12 -22 -9 0 -17 9 -18 21 -1 16 1 17 9 5 9 -13
10 -13 6 0 -2 8 -12 14 -22 12 -12 -2 -15 1 -9 10 6 11 5 11 -8 0 -12 -10 -18
-9 -28 3 -7 8 -17 15 -23 15 -6 0 -2 -7 9 -15 19 -14 18 -14 -3 -15 -17 0 -21
-4 -17 -17 5 -14 4 -15 -4 -4 -6 8 -15 10 -22 6 -9 -5 -11 -4 -6 3 10 16 -7
15 -23 0 -11 -10 -13 -10 -7 0 4 6 2 12 -4 12 -6 0 -8 5 -4 11 4 8 9 7 15 -2
5 -8 9 -9 9 -4 0 6 -5 17 -10 25 -6 10 -10 11 -10 3 0 -19 -18 -16 -23 5 -4
15 -5 15 -6 -2 -1 -16 -3 -17 -18 -5 -15 11 -16 11 -5 -1 17 -19 15 -35 -3
-20 -8 6 -18 9 -24 6 -5 -3 -8 2 -7 11 2 10 1 12 -1 5 -3 -7 -8 -10 -13 -7 -5
3 -12 0 -16 -6 -4 -8 -3 -9 4 -5 7 4 12 3 12 -3 0 -6 -12 -9 -27 -8 -28 2 -43
13 -43 32 0 6 5 3 10 -5 6 -9 10 -10 10 -3 0 18 -21 27 -30 13 -4 -7 -10 -8
-14 -2 -3 5 -17 8 -31 7 -14 -2 -25 1 -25 6 0 5 -10 7 -22 5 -13 -2 -30 0 -39
5 -10 5 -16 4 -16 -4 0 -8 14 -12 35 -12 23 0 37 -5 39 -15 4 -12 3 -12 -5 -2
-13 19 -25 17 -33 -5 -7 -17 -8 -17 -8 0 -1 19 -21 24 -21 5 -1 -7 -8 -1 -16
15 -17 31 -20 33 -28 11 -4 -10 -2 -13 6 -8 6 4 8 3 4 -4 -3 -5 0 -12 6 -15 7
-3 3 -4 -9 -4 -12 1 -19 5 -17 9 3 4 -2 8 -11 8 -9 0 -14 -4 -11 -8 3 -5 -1
-9 -9 -9 -8 0 -12 4 -9 9 3 4 -4 8 -15 8 -10 0 -22 -6 -25 -12 -3 -7 -3 -2 1
12 5 22 4 23 -11 11 -14 -12 -19 -12 -29 -1 -9 9 -9 11 0 6 6 -3 15 -1 19 5 4
8 3 9 -4 5 -7 -4 -12 -1 -12 6 0 8 -5 6 -11 -4 -5 -10 -15 -18 -20 -18 -6 0
-8 4 -4 9 3 5 0 13 -7 17 -7 4 -10 4 -6 -1 9 -9 -9 -35 -24 -35 -6 0 -5 7 2
15 7 9 10 18 6 22 -3 3 -6 1 -6 -6 0 -8 -6 -11 -16 -7 -8 3 -13 2 -9 -3 3 -5
-9 -13 -27 -16 -18 -4 -37 -10 -43 -13 -14 -9 -38 -12 -30 -4 4 4 12 7 18 7 7
0 13 10 13 22 1 12 -3 20 -8 17 -4 -3 -6 -10 -3 -15 4 -5 2 -9 -4 -9 -5 0 -15
8 -20 18 -7 11 -10 13 -11 3 0 -11 -3 -11 -15 -1 -13 11 -14 10 -9 -4 4 -10
13 -15 20 -12 8 3 14 1 14 -4 0 -6 -9 -10 -21 -10 -11 0 -18 -4 -15 -8 2 -4
-5 -9 -16 -9 -19 -2 -19 -1 -3 11 10 7 15 18 11 24 -9 15 -26 16 -26 1 0 -5 5
-7 10 -4 21 13 9 -2 -18 -22 -21 -15 -29 -17 -29 -8 0 8 4 12 8 9 14 -8 20 16
9 33 -11 17 -11 17 -6 1 7 -22 -10 -24 -22 -2 -8 15 -10 15 -15 0 -4 -9 -11
-16 -17 -16 -6 0 -8 5 -4 12 4 7 3 8 -5 4 -6 -4 -9 -11 -7 -15 3 -4 1 -13 -3
-20 -6 -10 -10 -9 -14 4 -4 9 -3 14 2 11 5 -4 7 3 4 14 -7 25 -13 26 -14 3z
m57 -28 c-9 -9 -16 -13 -16 -8 0 12 22 34 28 28 2 -2 -3 -11 -12 -20z m-112 6
c-8 -8 -34 -10 -38 -2 -3 4 6 7 19 7 14 0 22 -2 19 -5z m414 -16 c-3 -3 -9 2
-12 12 -6 14 -5 15 5 6 7 -7 10 -15 7 -18z m-565 -16 c-9 -9 -12 -7 -10 9 1
14 5 18 11 12 7 -7 6 -14 -1 -21z m513 19 c3 -4 -1 -5 -10 -4 -8 1 -18 5 -22
8 -3 4 1 5 10 4 8 -1 18 -5 22 -8z m341 -10 c-3 -8 -6 -5 -6 6 -1 11 2 17 5
13 3 -3 4 -12 1 -19z m29 -4 c-4 -9 -9 -15 -11 -12 -3 3 -3 13 1 22 4 9 9 15
11 12 3 -3 3 -13 -1 -22z m-732 -6 c-3 -4 -11 -5 -19 -1 -21 7 -19 12 4 10 11
0 18 -5 15 -9z m456 2 c0 -5 -5 -10 -11 -10 -5 0 -7 5 -4 10 3 6 8 10 11 10 2
0 4 -4 4 -10z m-723 -14 c0 -8 -6 -12 -15 -9 -11 5 -11 7 0 14 7 5 13 9 14 9
0 0 1 -6 1 -14z m-233 -12 c3 -8 2 -12 -4 -9 -6 3 -10 1 -10 -6 0 -7 -2 -10
-5 -7 -5 5 4 38 10 38 2 0 6 -7 9 -16z m326 10 c0 -8 -19 -13 -24 -6 -3 5 1 9
9 9 8 0 15 -2 15 -3z m1090 -4 c0 -5 -5 -10 -11 -10 -5 0 -7 5 -4 10 3 6 8 10
11 10 2 0 4 -4 4 -10z m160 -11 c0 -6 -4 -7 -10 -4 -5 3 -10 11 -10 16 0 6 5
7 10 4 6 -3 10 -11 10 -16z m-20 -12 c0 -2 -8 -3 -18 -3 -10 0 -19 6 -19 13 0
8 6 9 19 2 10 -5 18 -11 18 -12z m-1625 3 c3 -5 1 -10 -4 -10 -6 0 -11 5 -11
10 0 6 2 10 4 10 3 0 8 -4 11 -10z m1874 -30 c11 -22 10 -23 -2 -8 -8 10 -17
15 -20 11 -4 -3 -7 -2 -7 4 0 10 12 25 15 21 1 -2 8 -14 14 -28z m-2205 -31
c-3 -5 -10 -7 -15 -3 -5 3 -7 10 -3 15 3 5 10 7 15 3 5 -3 7 -10 3 -15z m49 8
c3 -8 -1 -14 -8 -14 -7 0 -11 6 -8 14 3 7 6 13 8 13 2 0 5 -6 8 -13z m2237 7
c0 -8 -19 -13 -24 -6 -3 5 1 9 9 9 8 0 15 -2 15 -3z m130 -54 c0 -5 -2 -10 -4
-10 -3 0 -8 5 -11 10 -3 6 -1 10 4 10 6 0 11 -4 11 -10z m-2716 -36 c9 -24 7
-31 -5 -11 -6 9 -15 15 -20 12 -5 -4 -7 -10 -4 -15 3 -5 0 -12 -6 -16 -8 -4
-9 -3 -5 4 4 7 1 12 -8 12 -8 0 -16 -6 -19 -12 -3 -7 -4 -3 -4 9 1 12 5 19 9
17 4 -3 16 0 25 5 25 14 30 13 37 -5z m3004 -49 c-3 -3 -9 2 -12 12 -6 14 -5
15 5 6 7 -7 10 -15 7 -18z m-3133 -15 c3 -6 -1 -7 -9 -4 -18 7 -21 14 -7 14 6
0 13 -4 16 -10z m-95 -20 c0 -5 -2 -10 -4 -10 -3 0 -8 5 -11 10 -3 6 -1 10 4
10 6 0 11 -4 11 -10z m-220 -65 c-6 -8 -8 -20 -4 -27 5 -10 4 -10 -6 -1 -11
10 -11 15 0 28 7 8 15 15 17 15 3 0 0 -7 -7 -15z m3684 7 c3 -5 -1 -9 -9 -9
-8 0 -12 4 -9 9 3 4 7 8 9 8 2 0 6 -4 9 -8z m-3719 -42 c-3 -5 -12 -10 -18
-10 -7 0 -6 4 3 10 19 12 23 12 15 0z m3975 -66 c0 -8 -4 -14 -10 -14 -5 0 -9
6 -7 13 1 6 -4 11 -11 9 -8 -1 -11 2 -7 7 8 14 35 2 35 -15z m52 -9 c3 3 11
-1 18 -10 17 -20 5 -32 -15 -15 -8 7 -15 9 -15 5 0 -4 -7 -2 -15 5 -8 7 -12
16 -9 22 4 5 11 5 18 -1 7 -6 15 -9 18 -6z m-4349 -46 c4 -17 3 -19 -6 -10 -8
8 -14 4 -24 -17 -12 -26 -13 -26 -7 -2 l5 25 -20 -24 c-12 -12 -18 -28 -14
-35 3 -6 2 -8 -2 -3 -10 8 -15 48 -6 42 3 -1 20 8 36 21 17 13 31 24 31 24 1
0 4 -10 7 -21z m4397 -9 c0 -5 -2 -10 -4 -10 -3 0 -8 5 -11 10 -3 6 -1 10 4
10 6 0 11 -4 11 -10z m158 -75 c0 -14 -4 -27 -7 -30 -6 -3 -7 43 -2 53 4 9 9
-2 9 -23z m46 -44 c-2 -3 -12 3 -22 13 -16 17 -16 18 5 5 12 -7 20 -15 17 -18z
m41 -1 c-3 -5 -12 -10 -18 -10 -7 0 -6 4 3 10 19 12 23 12 15 0z m5 -24 c0 -2
-7 -7 -16 -10 -8 -3 -12 -2 -9 4 6 10 25 14 25 6z m30 -16 c0 -5 -4 -10 -10
-10 -5 0 -10 5 -10 10 0 6 5 10 10 10 6 0 10 -4 10 -10z m-5000 -9 c0 -5 -8
-15 -17 -22 -16 -12 -17 -12 -6 2 7 9 10 19 6 22 -3 4 -1 7 5 7 7 0 12 -4 12
-9z m-123 -87 c-3 -3 -12 -4 -19 -1 -8 3 -5 6 6 6 11 1 17 -2 13 -5z m5323
-54 c0 -5 -2 -10 -4 -10 -3 0 -8 5 -11 10 -3 6 -1 10 4 10 6 0 11 -4 11 -10z
m99 -73 c0 -9 -2 -9 -6 1 -2 6 -8 10 -13 7 -4 -3 -11 2 -14 10 -4 13 -2 14 14
5 11 -6 20 -16 19 -23z m-5644 -26 c-3 -2 -16 -6 -28 -8 -15 -2 -18 0 -9 5 14
9 45 12 37 3z m5770 -41 c3 -5 1 -10 -4 -10 -6 0 -11 5 -11 10 0 6 2 10 4 10
3 0 8 -4 11 -10z m-6001 -105 c-3 -8 -11 -13 -17 -12 -7 1 -11 -4 -9 -11 1 -8
-2 -11 -9 -6 -9 5 -5 13 10 26 28 22 32 22 25 3z m6111 -9 c0 -15 -4 -21 -9
-16 -5 5 -6 16 -3 24 9 22 12 20 12 -8z m29 -44 c3 -5 -1 -9 -9 -9 -8 0 -15 4
-15 9 0 4 4 8 9 8 6 0 12 -4 15 -8z m31 -2 c3 -5 1 -10 -4 -10 -6 0 -11 5 -11
10 0 6 2 10 4 10 3 0 8 -4 11 -10z m-6482 -235 c-3 -9 -8 -14 -10 -11 -3 3 -2
9 2 15 9 16 15 13 8 -4z m6700 0 c-3 -9 -8 -14 -10 -11 -3 3 -2 9 2 15 9 16
15 13 8 -4z m-6749 -24 c12 -13 14 -21 6 -26 -6 -3 -9 -2 -8 3 2 6 0 10 -4 11
-22 3 -28 0 -22 -11 5 -7 3 -8 -6 -3 -10 6 -10 11 3 20 9 7 14 15 10 18 -3 4
-4 7 -1 7 3 0 13 -9 22 -19z m6780 -6 c-4 -8 -11 -12 -16 -9 -6 4 -5 10 3 15
19 12 19 11 13 -6z m-6928 -127 c4 -7 3 -8 -4 -4 -7 4 -12 1 -12 -8 0 -9 -5
-16 -11 -16 -5 0 -7 -4 -4 -10 4 -6 -1 -7 -11 -3 -11 4 -13 8 -6 11 7 2 9 9 6
14 -4 6 -2 8 3 5 6 -4 13 0 17 8 7 18 12 19 22 3z m7098 -60 c-3 -5 2 -18 12
-29 9 -10 14 -19 11 -19 -4 0 -10 0 -14 0 -5 0 -8 6 -8 13 0 6 -5 12 -12 12
-6 0 -15 4 -20 9 -5 6 -2 6 6 1 10 -6 13 -4 9 7 -4 8 0 15 8 15 7 0 11 -4 8
-9z m-7208 -61 c8 3 14 0 14 -7 0 -6 -4 -9 -9 -6 -9 6 -35 -20 -44 -44 -4 -11
-6 -10 -6 4 -1 20 -1 20 -17 0 -14 -16 -14 -15 0 6 9 14 19 33 23 43 4 12 9
15 16 8 5 -5 16 -7 23 -4z m7281 -55 c7 -13 8 -23 1 -33 -8 -11 -9 -11 -4 3 6
20 -10 34 -17 16 -3 -7 -4 -3 -4 10 1 27 8 28 24 4z m-7387 -71 c0 -6 -4 -12
-8 -15 -5 -3 -9 1 -9 9 0 8 4 15 9 15 4 0 8 -4 8 -9z m7476 -72 c0 -3 5 -13
13 -22 9 -11 10 -17 2 -17 -6 0 -12 5 -12 10 -1 6 -2 15 -3 21 0 6 -9 16 -18
23 -10 7 -15 16 -11 19 6 7 32 -23 29 -34z m-16 -29 c0 -5 -5 -10 -11 -10 -5
0 -7 5 -4 10 3 6 8 10 11 10 2 0 4 -4 4 -10z m-7547 -13 c7 3 8 2 4 -3 -5 -5
-14 -9 -20 -9 -7 0 -12 -8 -12 -17 0 -9 -3 -20 -7 -23 -9 -9 -3 39 7 55 6 10
10 11 13 2 2 -7 9 -9 15 -5z m7617 -52 c0 -2 -6 -5 -13 -8 -8 -3 -14 1 -14 8
0 7 6 11 14 8 7 -3 13 -6 13 -8z m-7710 -95 c-18 -12 -30 -13 -30 -2 0 4 10 9
22 9 18 2 20 0 8 -7z m-45 -80 c3 -5 1 -10 -4 -10 -6 0 -11 5 -11 10 0 6 2 10
4 10 3 0 8 -4 11 -10z m-59 -37 c-4 -4 -12 -1 -19 7 -9 10 -9 11 1 6 7 -4 12
-2 13 6 0 11 2 11 6 0 3 -7 2 -16 -1 -19z m-50 -85 c-9 -14 -14 -28 -11 -31 3
-4 2 -4 -2 -1 -12 9 -9 28 7 45 21 22 24 15 6 -13z m8079 -119 c-4 -5 -2 -9 3
-9 5 0 9 -7 9 -15 0 -8 -3 -13 -5 -10 -3 3 -11 -3 -19 -13 -13 -15 -13 -15 -4
5 14 28 14 36 -1 27 -7 -5 -8 -3 -3 6 6 10 3 12 -11 7 -19 -7 -19 -7 0 8 19
15 41 11 31 -6z m18 -63 c4 -10 1 -13 -8 -9 -8 3 -12 9 -9 14 7 12 11 11 17
-5z m-8188 -26 c3 -5 1 -10 -4 -10 -6 0 -11 5 -11 10 0 6 2 10 4 10 3 0 8 -4
11 -10z m8245 -74 c0 -3 -4 -8 -10 -11 -5 -3 -10 -1 -10 4 0 6 5 11 10 11 6 0
10 -2 10 -4z m16 -102 c-2 -6 1 -17 7 -23 9 -9 8 -11 -6 -5 -9 3 -16 14 -15
23 2 9 -2 15 -8 14 -6 -1 -11 4 -11 12 0 10 4 11 19 2 10 -7 16 -17 14 -23z
m-8426 -114 c-13 -8 -12 -10 4 -10 11 0 17 -3 13 -6 -3 -4 -13 -4 -22 0 -18 6
-11 26 8 26 7 0 6 -4 -3 -10z m8565 -320 c3 -5 1 -10 -4 -10 -6 0 -11 5 -11
10 0 6 2 10 4 10 3 0 8 -4 11 -10z m18 -153 c3 -8 -1 -14 -8 -14 -7 0 -11 6
-8 14 3 7 6 13 8 13 2 0 5 -6 8 -13z m-8733 -21 c0 -3 -4 -8 -10 -11 -5 -3
-10 -1 -10 4 0 6 5 11 10 11 6 0 10 -2 10 -4z m8738 -101 c-3 -3 -9 2 -12 12
-6 14 -5 15 5 6 7 -7 10 -15 7 -18z m22 -119 c0 -3 -4 -8 -10 -11 -5 -3 -10
-1 -10 4 0 6 5 11 10 11 6 0 10 -2 10 -4z m20 -46 c0 -5 -4 -10 -10 -10 -5 0
-10 5 -10 10 0 6 5 10 10 10 6 0 10 -4 10 -10z m2 -77 c-6 -2 -10 -9 -7 -13 3
-5 1 -11 -4 -14 -7 -5 -8 11 -2 32 1 1 7 2 14 1 9 0 9 -2 -1 -6z m18 -37 c0
-3 -4 -8 -10 -11 -5 -3 -10 -1 -10 4 0 6 5 11 10 11 6 0 10 -2 10 -4z m-9
-149 c-10 -9 -11 -8 -5 6 3 10 9 15 12 12 3 -3 0 -11 -7 -18z m13 -155 c3 -5
-1 -9 -9 -9 -8 0 -12 4 -9 9 3 4 7 8 9 8 2 0 6 -4 9 -8z m-10 -128 c3 -8 2
-12 -4 -9 -6 3 -10 10 -10 16 0 14 7 11 14 -7z m-216 -329 c-3 -3 -9 2 -12 12
-6 14 -5 15 5 6 7 -7 10 -15 7 -18z m-8758 -5 c0 -5 -4 -10 -10 -10 -5 0 -10
5 -10 10 0 6 5 10 10 10 6 0 10 -4 10 -10z m14 -246 c3 -8 2 -12 -4 -9 -6 3
-10 10 -10 16 0 14 7 11 14 -7z m-4 -192 c-13 -6 -19 -25 -10 -34 1 -2 3 -14
4 -27 3 -22 2 -23 -10 -6 -7 10 -11 21 -9 26 3 4 1 11 -5 14 -15 9 7 35 29 34
14 0 14 -1 1 -7z m13 -105 c-3 -5 -11 -6 -19 -3 -17 7 -18 -6 -1 -23 10 -11 8
-11 -11 -2 -17 9 -20 16 -13 25 11 13 53 17 44 3z m-1 -76 c-8 -4 -13 -12 -12
-17 1 -5 -3 -10 -9 -12 -6 -2 -11 0 -11 5 0 12 22 33 35 33 5 0 4 -4 -3 -9z
m-4 -45 c-10 -7 -14 -17 -10 -21 4 -5 1 -5 -7 0 -12 7 -11 10 4 22 24 17 36
17 13 -1z m27 -16 c-3 -5 -12 -10 -18 -10 -7 0 -6 4 3 10 19 12 23 12 15 0z
m-18 -26 c-3 -3 -12 -4 -19 -1 -8 3 -5 6 6 6 11 1 17 -2 13 -5z m28 -271 c-2
-10 -4 -22 -4 -28 -1 -5 -5 -3 -11 5 -5 9 -5 19 2 27 14 17 17 16 13 -4z m22
-38 c0 -8 -4 -12 -9 -9 -5 3 -6 10 -3 15 9 13 12 11 12 -6z m8627 6 c3 -5 -2
-15 -12 -22 -15 -12 -16 -12 -5 2 7 9 10 19 6 22 -3 4 -4 7 0 7 3 0 8 -4 11
-9z m-8608 -143 c4 -7 3 -8 -4 -4 -7 4 -12 3 -12 -3 0 -5 8 -12 18 -14 15 -4
15 -5 0 -6 -19 -1 -32 14 -23 29 8 13 12 13 21 -2z m19 -67 c3 -6 -5 -15 -17
-21 -21 -10 -21 -10 -6 3 10 8 15 17 11 20 -3 4 -4 7 0 7 3 0 8 -4 12 -9z
m8478 -37 c-3 -9 0 -14 8 -12 7 2 13 -2 14 -9 0 -6 3 -15 7 -18 4 -4 3 -15 -2
-25 -5 -10 -6 -21 -2 -25 4 -5 2 -5 -5 -1 -6 3 -16 -2 -22 -11 -6 -11 -11 -13
-11 -5 0 8 -5 10 -12 6 -7 -4 -5 2 5 13 21 24 28 53 17 68 -10 13 -9 45 1 39
5 -2 6 -11 2 -20z m-8457 -130 c0 -29 -9 -38 -12 -13 -1 5 -2 10 -4 12 -8 10
-5 34 4 34 7 0 12 -15 12 -33z m44 -68 c0 -3 -4 -8 -10 -11 -5 -3 -10 -1 -10
4 0 6 5 11 10 11 6 0 10 -2 10 -4z m8599 -133 c2 -1 -6 -1 -17 0 -12 0 -19 3
-17 5 2 2 -1 10 -8 17 -9 10 -14 9 -25 -4 -10 -13 -12 -13 -10 -1 5 27 22 29
48 7 14 -12 27 -23 29 -24z m82 -110 c13 -16 12 -17 -3 -4 -10 7 -18 15 -18
17 0 8 8 3 21 -13z m-8562 -149 c-25 -30 -19 -50 14 -45 4 0 7 -3 7 -9 0 -21
-45 0 -46 22 0 13 24 48 34 48 2 0 -2 -7 -9 -16z m45 -119 c-4 -8 -11 -15 -16
-15 -6 0 -5 6 2 15 7 8 14 15 16 15 2 0 1 -7 -2 -15z m36 -55 c0 -5 -2 -10 -4
-10 -3 0 -8 5 -11 10 -3 6 -1 10 4 10 6 0 11 -4 11 -10z m8533 -15 c-3 -9 -8
-14 -10 -11 -3 3 -2 9 2 15 9 16 15 13 8 -4z m-8553 -3 c0 -5 10 -13 22 -19
21 -9 21 -10 3 -17 -11 -4 -16 -4 -13 0 4 3 -3 15 -15 25 -12 10 -16 18 -9 19
6 0 12 -4 12 -8z m100 -136 c0 -2 -7 -7 -16 -10 -8 -3 -12 -2 -9 4 6 10 25 14
25 6z m36 -115 c-5 -8 -13 -8 -27 0 -12 6 -18 13 -15 16 3 3 13 0 23 -8 15
-13 16 -12 9 6 -5 15 -4 17 5 8 6 -6 8 -16 5 -22z m8204 -51 c0 -5 -5 -10 -11
-10 -5 0 -7 5 -4 10 3 6 8 10 11 10 2 0 4 -4 4 -10z m-8056 -223 c5 -20 4 -21
-8 -4 -11 13 -15 15 -19 5 -3 -7 -4 -3 -4 8 1 27 23 20 31 -9z m46 -57 c11 -7
11 -10 2 -10 -7 0 -10 -5 -7 -10 5 -8 11 -7 21 1 10 8 14 8 14 0 0 -6 -6 -11
-12 -11 -10 0 -10 -2 0 -9 11 -6 10 -10 -4 -15 -10 -4 -15 -4 -11 0 4 4 0 16
-10 26 -9 10 -12 18 -7 18 5 0 2 5 -6 10 -8 5 -10 10 -5 10 6 0 17 -5 25 -10z
m7729 -126 c-14 -18 -24 -11 -15 11 3 9 11 13 16 10 8 -5 7 -11 -1 -21z
m-7636 -1 c-3 -7 -9 -11 -13 -8 -5 3 -10 2 -13 -2 -2 -5 -2 -3 -1 4 2 6 -2 14
-9 16 -7 2 0 4 14 3 17 -1 25 -6 22 -13z m7512 -82 c3 -5 2 -12 -3 -15 -5 -3
-9 1 -9 9 0 17 3 19 12 6z m-161 -218 c4 -10 4 -14 0 -10 -4 4 -13 2 -21 -4
-16 -14 -17 -3 0 16 15 18 14 18 21 -2z m-7078 -43 c0 -23 -2 -27 -13 -19 -9
8 -10 16 -2 30 13 26 15 24 15 -11z m269 -272 c7 -16 17 -22 35 -21 22 2 23 2
5 -6 -11 -5 -25 -5 -31 0 -6 5 -15 5 -19 1 -5 -4 -5 -2 -2 4 4 7 0 15 -9 18
-8 3 -12 10 -9 16 10 16 19 12 30 -12z m30 13 c3 -5 2 -12 -3 -15 -5 -3 -9 1
-9 9 0 17 3 19 12 6z m6430 -11 c-3 -5 -12 -10 -18 -10 -7 0 -6 4 3 10 19 12
23 12 15 0z m-205 -194 c0 -3 -4 -8 -10 -11 -5 -3 -10 -1 -10 4 0 6 5 11 10
11 6 0 10 -2 10 -4z m-174 -129 c2 -18 -21 -16 -39 3 -10 12 -9 12 4 2 22 -16
33 -2 11 15 -16 13 -16 14 2 5 11 -5 20 -17 22 -25z m-226 -97 c0 -5 -5 -10
-11 -10 -5 0 -7 5 -4 10 3 6 8 10 11 10 2 0 4 -4 4 -10z m-5180 -40 c0 -5 -2
-10 -4 -10 -3 0 -8 5 -11 10 -3 6 -1 10 4 10 6 0 11 -4 11 -10z m191 -113
c-10 -9 -11 -8 -5 6 3 10 9 15 12 12 3 -3 0 -11 -7 -18z m29 -1 c0 -2 -8 -10
-17 -17 -16 -13 -17 -12 -4 4 13 16 21 21 21 13z m4640 -26 c0 -5 -5 -10 -11
-10 -5 0 -7 5 -4 10 3 6 8 10 11 10 2 0 4 -4 4 -10z m-4505 -48 c-3 -3 -11 0
-18 7 -9 10 -8 11 6 5 10 -3 15 -9 12 -12z m98 -36 c4 -10 1 -13 -8 -9 -8 3
-12 9 -9 14 7 12 11 11 17 -5z m4149 -48 c-9 -9 -15 -9 -24 1 -11 10 -10 11 5
6 10 -5 17 -2 17 6 0 7 3 9 7 6 4 -4 1 -13 -5 -19z m-128 -26 c3 -5 -1 -9 -9
-9 -8 0 -12 4 -9 9 3 4 7 8 9 8 2 0 6 -4 9 -8z m66 -3 c0 -4 -7 -10 -16 -13
-10 -4 -13 -2 -8 6 5 8 2 9 -10 5 -9 -4 -15 -3 -11 2 6 11 45 10 45 0z m-3885
-16 c-11 -3 -26 -10 -32 -15 -9 -7 -13 -7 -13 0 0 13 18 21 45 20 l20 0 -20
-5z m3602 -48 c0 -8 -4 -12 -9 -9 -5 3 -6 10 -3 15 9 13 12 11 12 -6z m3 -29
c0 -3 -4 -8 -10 -11 -5 -3 -10 -1 -10 4 0 6 5 11 10 11 6 0 10 -2 10 -4z
m-120 -27 c5 9 10 8 18 -2 9 -11 7 -13 -10 -12 -12 1 -23 7 -24 14 -2 8 -1 8
3 0 4 -8 7 -8 13 0z m-3050 -39 c-6 -11 -15 -20 -20 -20 -6 0 -5 9 2 20 7 11
16 20 21 20 4 0 3 -9 -3 -20z m2845 0 c-3 -5 -12 -10 -18 -10 -7 0 -6 4 3 10
19 12 23 12 15 0z m42 -5 c0 -18 -24 -28 -33 -13 -4 6 -3 8 3 5 6 -4 13 0 17
8 7 19 13 19 13 0z m-2702 -14 c-3 -2 -16 -6 -28 -8 -15 -2 -18 0 -9 5 14 9
45 12 37 3z m-58 -28 c-3 -3 -11 -2 -17 2 -9 6 -9 10 1 16 14 8 27 -7 16 -18z
m2583 -15 c0 -4 -3 -7 -7 -7 -5 1 -10 1 -13 -1 -3 -1 -16 -4 -30 -6 -24 -4
-24 -4 -5 10 11 8 23 12 27 10 13 -8 9 11 -4 26 -7 8 -3 6 10 -4 12 -11 22
-23 22 -28z m-50 18 c0 -2 -7 -7 -16 -10 -8 -3 -12 -2 -9 4 6 10 25 14 25 6z
m-2273 -21 c4 -4 2 -5 -4 -1 -7 4 -13 3 -13 -3 0 -13 45 -25 59 -17 5 4 13 1
17 -5 4 -7 3 -9 -4 -5 -6 3 -13 2 -17 -4 -4 -7 -12 -7 -24 0 -10 5 -20 7 -23
5 -3 -3 -10 6 -16 19 -9 19 -8 24 3 22 8 -1 18 -6 22 -11z m2227 3 c-2 -3 2
-9 8 -12 7 -3 2 -3 -12 0 -35 9 -44 19 -15 19 12 0 21 -3 19 -7z m-2324 -8 c0
-5 -2 -10 -4 -10 -3 0 -8 5 -11 10 -3 6 -1 10 4 10 6 0 11 -4 11 -10z m2241 1
c-8 -5 -9 -11 -3 -15 6 -3 13 -2 17 4 8 13 25 13 25 -1 0 -5 -4 -8 -9 -4 -5 3
-13 1 -16 -5 -5 -8 -11 -7 -21 1 -15 12 -10 29 9 29 8 0 8 -3 -2 -9z m-2051
-13 c0 -4 -4 -8 -9 -8 -6 0 -12 4 -15 8 -3 5 1 9 9 9 8 0 15 -4 15 -9z m1970
-18 c0 -5 -2 -10 -4 -10 -3 0 -8 5 -11 10 -3 6 -1 10 4 10 6 0 11 -4 11 -10z
m-1817 -20 c4 -17 2 -18 -14 -9 -11 5 -17 14 -14 20 10 15 22 10 28 -11z m157
-4 c0 -2 -7 -7 -16 -10 -8 -3 -12 -2 -9 4 6 10 25 14 25 6z m140 -16 c0 -5 -5
-10 -11 -10 -5 0 -7 5 -4 10 3 6 8 10 11 10 2 0 4 -4 4 -10z m1037 -10 c-1
-12 -5 -16 -10 -11 -5 5 -6 14 -3 20 11 16 15 13 13 -9z m-419 -1 c-2 -6 3
-14 11 -17 8 -3 11 0 7 7 -4 6 -5 11 -2 11 16 0 13 -21 -5 -30 -17 -9 -20 -9
-14 0 5 9 2 10 -12 6 -12 -4 -25 -1 -31 7 -9 10 -8 14 3 14 8 0 12 -4 9 -9 -3
-4 -1 -8 4 -8 6 0 12 7 16 15 6 17 17 20 14 4z m278 -7 c0 -15 -7 -18 -31 -17
-38 3 -37 3 -30 15 5 8 12 7 22 -2 12 -10 17 -9 24 5 13 22 15 21 15 -1z m204
14 c0 -3 -4 -8 -10 -11 -5 -3 -10 -1 -10 4 0 6 5 11 10 11 6 0 10 -2 10 -4z
m-1000 -18 c0 -9 3 -8 10 2 5 8 12 11 16 7 12 -12 -11 -28 -29 -21 -18 7 -23
24 -7 24 6 0 10 -6 10 -12z m343 -1 c3 -7 -3 -13 -14 -13 -13 0 -15 3 -7 13 6
7 12 13 13 13 2 0 5 -6 8 -13z m270 -8 c-8 -8 -13 -7 -18 2 -5 8 -4 10 3 5 7
-4 12 -2 12 5 0 7 3 9 7 6 4 -4 2 -12 -4 -18z m-39 2 c3 -5 -1 -11 -9 -14 -9
-4 -12 -1 -8 9 6 16 10 17 17 5z"/>
<path d="M1619 7943 c-13 -16 -12 -17 4 -4 9 7 17 15 17 17 0 8 -8 3 -21 -13z"/>
<path d="M9233 3945 c4 -5 0 -19 -9 -33 -9 -13 -11 -21 -5 -18 21 13 32 44 19
52 -7 4 -10 3 -5 -1z"/>
<path d="M5712 9645 c4 -4 3 -14 -4 -22 -8 -11 -7 -12 6 -7 19 7 21 20 4 30
-7 4 -10 4 -6 -1z"/>
<path d="M5680 9630 c-9 -6 -10 -10 -3 -10 6 0 15 5 18 10 8 12 4 12 -15 0z"/>
<path d="M4695 9593 c2 -10 4 -20 5 -23 1 -3 2 -9 1 -13 -1 -4 7 -3 18 2 10 6
20 8 23 6 2 -2 4 5 4 15 0 13 -4 16 -10 10 -6 -6 -16 -4 -27 6 -16 14 -17 14
-14 -3z"/>
<path d="M4780 9595 c7 -8 17 -15 22 -15 5 0 3 7 -6 15 -8 8 -18 15 -22 15 -3
0 -1 -7 6 -15z"/>
<path d="M5970 9594 c0 -8 5 -12 10 -9 6 3 10 10 10 16 0 5 -4 9 -10 9 -5 0
-10 -7 -10 -16z"/>
<path d="M6140 9593 c11 -24 30 -31 30 -11 0 6 -3 8 -7 5 -3 -4 -12 1 -20 11
-13 15 -13 15 -3 -5z"/>
<path d="M4336 9533 c-6 -14 -5 -15 5 -6 7 7 10 15 7 18 -3 3 -9 -2 -12 -12z"/>
<path d="M4425 9533 c-5 -14 -4 -15 6 -6 9 9 17 9 33 1 19 -10 20 -10 7 5 -18
22 -37 22 -46 0z"/>
<path d="M6508 9533 c7 -3 16 -2 19 1 4 3 -2 6 -13 5 -11 0 -14 -3 -6 -6z"/>
<path d="M6598 9498 c-5 -11 -2 -15 10 -14 9 2 18 9 20 17 3 12 2 12 -6 0 -8
-11 -10 -11 -14 0 -3 10 -6 9 -10 -3z"/>
<path d="M6690 9483 c0 -6 8 -17 18 -24 16 -13 16 -13 2 6 -8 11 -16 22 -17
24 -2 2 -3 0 -3 -6z"/>
<path d="M4030 9460 c0 -5 5 -10 11 -10 5 0 7 5 4 10 -3 6 -8 10 -11 10 -2 0
-4 -4 -4 -10z"/>
<path d="M6785 9440 c3 -5 8 -10 11 -10 2 0 4 5 4 10 0 6 -5 10 -11 10 -5 0
-7 -4 -4 -10z"/>
<path d="M3807 9389 c7 -7 15 -10 18 -7 3 3 -2 9 -12 12 -14 6 -15 5 -6 -5z"/>
<path d="M3702 9365 c4 -4 3 -16 -3 -26 -5 -11 -7 -19 -5 -19 3 0 10 9 16 19
7 15 7 22 -2 27 -7 4 -10 4 -6 -1z"/>
<path d="M3594 9322 c-9 -5 -8 -10 1 -19 10 -10 16 -9 26 3 6 8 9 17 5 21 -3
3 -6 1 -6 -5 0 -7 -5 -12 -11 -12 -5 0 -7 5 -4 10 7 12 4 12 -11 2z"/>
<path d="M3290 9200 c-9 -6 -10 -10 -3 -10 6 0 15 5 18 10 8 12 4 12 -15 0z"/>
<path d="M3236 9155 c4 -8 10 -15 15 -15 4 0 6 7 3 15 -4 8 -10 15 -15 15 -4
0 -6 -7 -3 -15z"/>
<path d="M2935 9020 c-3 -5 -1 -10 4 -10 6 0 11 5 11 10 0 6 -2 10 -4 10 -3 0
-8 -4 -11 -10z"/>
<path d="M2855 8980 c-3 -5 -1 -10 4 -10 6 0 11 5 11 10 0 6 -2 10 -4 10 -3 0
-8 -4 -11 -10z"/>
<path d="M7917 8943 c-10 -9 -9 -23 1 -23 5 0 9 7 9 15 0 17 -1 18 -10 8z"/>
<path d="M2758 8918 c8 -10 9 -19 3 -22 -5 -3 -12 0 -14 6 -4 10 -6 10 -6 0
-1 -7 -5 -11 -9 -8 -5 3 -9 -1 -9 -9 0 -11 4 -12 13 -4 8 7 14 7 19 -1 3 -6
11 -8 16 -4 5 3 7 9 4 14 -3 5 4 11 15 15 11 3 20 11 20 16 0 13 -18 11 -23
-3 -3 -10 -8 -9 -23 2 -17 14 -18 14 -6 -2z"/>
<path d="M7967 8881 c-4 -17 -3 -21 5 -13 5 5 8 16 6 23 -3 8 -7 3 -11 -10z"/>
<path d="M2695 8880 c-3 -5 -1 -10 4 -10 6 0 11 5 11 10 0 6 -2 10 -4 10 -3 0
-8 -4 -11 -10z"/>
<path d="M8181 8736 c-9 -10 -5 -19 15 -40 15 -14 30 -23 33 -20 3 4 0 9 -8
12 -11 4 -11 6 0 14 11 8 11 9 -2 5 -23 -8 -42 13 -28 30 7 7 9 13 6 13 -2 0
-10 -6 -16 -14z"/>
<path d="M8300 8623 c0 -18 37 -45 45 -33 4 6 4 14 1 17 -3 4 -6 0 -6 -7 0 -8
-8 -3 -20 10 -11 13 -20 19 -20 13z"/>
<path d="M2301 8604 c0 -11 3 -14 6 -6 3 7 2 16 -1 19 -3 4 -6 -2 -5 -13z"/>
<path d="M8406 8532 c-3 -6 -1 -14 5 -17 15 -10 25 3 12 16 -7 7 -13 7 -17 1z"/>
<path d="M2070 8394 c0 -8 5 -12 10 -9 6 3 10 10 10 16 0 5 -4 9 -10 9 -5 0
-10 -7 -10 -16z"/>
<path d="M1955 8329 c-4 -6 -5 -12 -2 -15 2 -3 7 2 10 11 7 17 1 20 -8 4z"/>
<path d="M8820 8081 c0 -10 19 -25 25 -20 1 2 -3 10 -11 17 -8 7 -14 8 -14 3z"/>
<path d="M8963 7865 c0 -8 5 -13 11 -12 6 1 10 -6 10 -15 -1 -9 4 -14 11 -12
6 3 12 11 12 19 0 8 -4 12 -9 9 -4 -3 -8 -1 -8 4 0 6 -6 12 -13 15 -8 3 -14
-1 -14 -8z"/>
<path d="M1471 7797 c-1 -11 -6 -15 -13 -11 -7 5 -8 3 -3 -5 10 -16 29 2 22
21 -4 8 -6 7 -6 -5z"/>
<path d="M1310 7605 c-7 -9 -8 -15 -2 -15 5 0 12 7 16 15 3 8 4 15 2 15 -2 0
-9 -7 -16 -15z"/>
<path d="M1290 7549 c0 -4 6 -9 13 -12 8 -3 14 0 14 7 0 7 -6 13 -14 13 -7 0
-13 -4 -13 -8z"/>
<path d="M1275 7520 c-3 -5 -1 -10 4 -10 6 0 11 5 11 10 0 6 -2 10 -4 10 -3 0
-8 -4 -11 -10z"/>
<path d="M9206 7471 c-12 -13 -14 -21 -6 -26 5 -3 7 -12 4 -18 -4 -7 -3 -8 1
-4 5 4 14 -1 20 -12 7 -15 14 -18 25 -11 13 8 12 10 -2 10 -16 0 -23 11 -19
33 0 4 -7 7 -16 7 -16 1 -16 2 1 15 11 8 17 17 14 20 -2 3 -13 -3 -22 -14z"/>
<path d="M1156 7353 c-6 -14 -5 -15 5 -6 7 7 10 15 7 18 -3 3 -9 -2 -12 -12z"/>
<path d="M9285 7319 c-4 -6 -5 -12 -2 -15 2 -3 7 2 10 11 7 17 1 20 -8 4z"/>
<path d="M1026 7087 c4 -12 2 -16 -7 -14 -8 2 -11 2 -6 0 4 -3 4 -10 1 -16 -4
-7 1 -4 12 5 15 14 16 20 5 30 -10 11 -11 10 -5 -5z"/>
<path d="M996 7033 c2 -6 -2 -14 -9 -17 -7 -2 -5 -5 4 -5 9 -1 20 6 23 15 3 8
2 13 -3 9 -5 -3 -11 -2 -14 2 -2 5 -2 3 -1 -4z"/>
<path d="M876 6781 c-3 -4 2 -16 12 -24 16 -15 18 -15 18 2 0 12 -5 17 -15 13
-9 -3 -12 -1 -7 6 4 7 5 12 2 12 -3 0 -7 -4 -10 -9z"/>
<path d="M799 6553 c-13 -16 -12 -17 4 -4 16 13 21 21 13 21 -2 0 -10 -8 -17
-17z"/>
<path d="M9534 6481 c0 -11 6 -17 13 -14 6 3 9 11 6 19 -7 20 -19 17 -19 -5z"/>
<path d="M9550 6362 c0 -15 11 -21 27 -15 12 5 12 7 1 14 -17 11 -28 11 -28 1z"/>
<path d="M717 6237 c-3 -8 1 -14 9 -14 8 0 14 6 14 14 0 7 -4 13 -9 13 -5 0
-11 -6 -14 -13z"/>
<path d="M9592 6218 c-15 -15 -15 -28 0 -28 6 0 8 3 5 7 -4 3 -2 12 4 20 14
16 7 17 -9 1z"/>
<path d="M695 6200 c3 -5 8 -10 11 -10 2 0 4 5 4 10 0 6 -5 10 -11 10 -5 0 -7
-4 -4 -10z"/>
<path d="M9630 5959 c0 -5 -6 -7 -12 -3 -7 4 -9 3 -5 -1 13 -15 36 -14 30 1
-6 17 -13 18 -13 3z"/>
<path d="M9633 5912 c-7 -12 -8 -24 -2 -33 5 -8 9 -9 10 -4 0 6 2 20 5 33 5
27 2 28 -13 4z"/>
<path d="M9610 5809 c0 -4 7 -12 15 -19 8 -7 15 -9 15 -5 0 4 6 2 14 -5 13
-10 13 -8 3 13 -10 22 -47 34 -47 16z"/>
<path d="M625 5799 c-3 -5 1 -6 9 -3 11 4 14 -1 12 -19 -2 -18 1 -24 11 -20
10 4 11 9 4 16 -7 7 -7 15 -1 22 6 7 3 11 -10 12 -11 1 -22 -2 -25 -8z"/>
<path d="M625 5731 c-3 -5 -1 -12 5 -16 6 -4 7 -13 1 -23 -9 -18 -4 -42 8 -42
9 0 8 51 -2 67 -4 6 -1 14 5 16 9 4 10 6 1 6 -6 1 -14 -3 -18 -8z"/>
<path d="M9633 5725 c0 -8 4 -12 9 -9 5 3 6 10 3 15 -9 13 -12 11 -12 -6z"/>
<path d="M9634 5637 c3 -10 2 -27 -4 -37 -7 -13 -6 -19 5 -23 9 -4 12 -1 8 9
-3 8 2 25 11 39 9 14 12 25 6 25 -5 0 -10 -6 -10 -12 0 -9 -4 -8 -11 2 -9 12
-10 12 -5 -3z"/>
<path d="M9495 5340 c-4 -6 -14 -9 -22 -6 -8 4 -11 1 -8 -5 4 -6 -1 -17 -11
-25 -12 -9 -14 -13 -5 -12 17 4 64 48 58 55 -3 2 -8 -1 -12 -7z"/>
<path d="M9427 5219 c-10 -6 -14 -15 -10 -22 4 -7 0 -6 -10 2 -12 9 -17 10
-17 2 0 -7 -5 -9 -11 -5 -8 4 -8 0 0 -15 7 -12 9 -26 6 -32 -4 -5 -2 -16 5
-24 13 -16 -3 -30 -22 -19 -7 4 -4 -2 6 -14 22 -26 45 -30 25 -5 -12 15 -12
16 1 8 24 -15 39 -14 33 1 -3 8 -9 11 -14 8 -5 -3 -9 4 -9 15 0 12 5 21 11 21
5 0 7 -5 3 -12 -4 -7 -3 -8 5 -4 6 4 8 13 4 19 -14 22 -14 49 -1 41 10 -5 10
-4 1 6 -10 11 -9 16 5 26 20 16 14 18 -11 3z m-13 -47 c2 -4 -2 -16 -10 -27
-8 -10 -14 -14 -14 -8 0 7 5 15 11 19 8 4 7 9 -2 15 -10 6 -10 9 -2 9 6 0 14
-3 17 -8z"/>
<path d="M587 5160 c6 -21 18 -26 28 -11 3 6 -3 15 -14 20 -16 9 -18 8 -14 -9z"/>
<path d="M9369 5063 c-5 -13 -3 -29 4 -34 14 -10 19 -69 6 -66 -6 1 -13 -6
-14 -15 -2 -10 2 -15 10 -12 8 3 18 -3 24 -14 8 -15 7 -21 -3 -25 -15 -6 -16
-23 -3 -43 3 -6 3 -14 0 -18 -11 -11 -12 -35 -2 -42 6 -3 5 -11 -2 -20 -14
-17 -7 -27 24 -31 12 -2 18 0 12 4 -12 10 -20 47 -8 40 4 -3 9 6 9 19 2 21 -2
24 -20 19 -18 -5 -17 -4 4 9 22 14 23 15 5 16 -16 0 -17 2 -6 9 17 11 25 51
11 51 -16 0 -12 19 11 53 l21 32 -26 -30 c-14 -16 -28 -26 -32 -22 -4 4 -2 7
4 7 13 0 16 26 5 33 -5 2 -3 2 4 1 15 -4 37 22 25 30 -5 3 -8 16 -7 29 2 20
-2 24 -26 24 -16 0 -30 -2 -30 -4z m40 -30 c-6 -7 -15 -10 -20 -7 -13 8 -3 21
15 21 12 0 13 -4 5 -14z m15 -34 c-3 -5 -10 -7 -15 -3 -5 3 -7 10 -3 15 3 5
10 7 15 3 5 -3 7 -10 3 -15z m-7 -113 c0 -8 -6 -12 -15 -9 -11 5 -11 7 0 14 7
5 13 9 14 9 0 0 1 -6 1 -14z m-3 -81 c-4 -8 -11 -12 -16 -9 -6 4 -5 10 3 15
19 12 19 11 13 -6z m-4 -39 c0 -3 -4 -8 -10 -11 -5 -3 -10 -1 -10 4 0 6 5 11
10 11 6 0 10 -2 10 -4z"/>
<path d="M9387 4705 c-9 -13 -13 -26 -8 -30 5 -3 12 -1 16 5 4 6 12 7 18 3 7
-4 6 0 -2 10 -9 11 -10 17 -2 17 6 0 11 5 11 10 0 17 -14 11 -33 -15z"/>
<path d="M9363 4593 c-17 -12 -20 -19 -13 -33 7 -13 5 -21 -5 -30 -8 -7 -12
-17 -8 -23 11 -17 11 -47 1 -53 -5 -3 -2 -14 7 -23 14 -16 14 -20 -6 -44 -11
-15 -17 -27 -12 -27 4 0 1 -5 -7 -10 -8 -5 -10 -10 -4 -10 6 0 11 -7 11 -15 0
-8 -5 -15 -11 -15 -6 0 -3 -5 7 -11 9 -6 15 -14 12 -20 -4 -5 -2 -9 3 -9 14 0
23 28 11 35 -5 4 -7 11 -3 16 3 6 12 5 22 -3 13 -11 14 -11 7 2 -6 8 -10 22
-10 30 0 8 -4 21 -8 28 -5 6 -4 12 0 12 5 0 15 -6 22 -12 11 -11 12 -10 5 2
-12 20 -12 34 1 42 6 5 5 8 -3 8 -7 0 -10 5 -6 12 4 6 3 8 -4 4 -6 -3 -13 -2
-17 4 -6 10 6 14 35 11 11 -1 10 1 -3 10 -14 8 -16 14 -6 25 6 8 8 14 3 14 -5
0 0 7 10 15 11 8 15 15 9 15 -14 0 -13 42 0 51 20 14 -20 15 -40 2z m24 -28
c4 -4 2 -5 -4 -1 -16 9 -17 -10 -3 -19 8 -5 7 -11 -1 -21 -6 -8 -8 -14 -4 -14
4 0 2 -6 -4 -13 -6 -8 -8 -17 -4 -20 3 -4 1 -7 -6 -7 -7 0 -11 6 -8 14 3 7 1
18 -4 23 -6 6 -4 14 5 22 11 10 13 18 6 31 -7 14 -6 18 5 16 8 -1 18 -6 22
-11z m-26 -132 c13 -16 12 -17 -3 -4 -17 13 -22 21 -14 21 2 0 10 -8 17 -17z
m-5 -78 c1 -8 -4 -19 -10 -25 -10 -7 -12 -3 -10 18 1 15 2 29 3 31 2 8 15 -10
17 -24z"/>
<path d="M9361 4526 c-9 -11 -9 -16 1 -22 7 -4 10 -4 6 1 -4 4 -3 14 3 22 6 7
9 13 6 13 -2 0 -10 -6 -16 -14z"/>
<path d="M615 4500 c-3 -5 -2 -10 4 -10 5 0 13 5 16 10 3 6 2 10 -4 10 -5 0
-13 -4 -16 -10z"/>
<path d="M629 4421 c6 -10 7 -21 4 -25 -3 -3 -1 -6 5 -6 15 0 11 38 -5 45 -10
3 -11 0 -4 -14z"/>
<path d="M639 4372 c9 -7 10 -12 2 -16 -6 -4 -9 -12 -5 -17 3 -5 9 -7 14 -4
13 8 5 38 -11 43 -12 3 -12 2 0 -6z"/>
<path d="M9285 4240 c-3 -5 -1 -10 4 -10 6 0 11 5 11 10 0 6 -2 10 -4 10 -3 0
-8 -4 -11 -10z"/>
<path d="M9280 4163 c0 -6 4 -14 10 -18 13 -8 0 -36 -14 -28 -6 3 -8 3 -4 -2
4 -4 2 -15 -4 -23 -16 -18 -19 -40 -7 -48 6 -3 2 -12 -8 -20 -12 -9 -13 -13
-5 -14 7 0 11 -4 7 -9 -8 -14 9 -21 25 -11 12 7 12 11 -1 26 -12 16 -12 17 3
11 12 -4 16 -1 13 13 -2 11 0 22 5 25 5 3 7 19 5 35 -3 22 -1 29 8 23 7 -4 5
2 -3 12 -14 17 -13 18 4 12 16 -7 17 -5 5 9 -9 11 -14 13 -17 4 -3 -9 -7 -9
-13 1 -6 9 -9 10 -9 2z m4 -75 c-19 -21 -19 -21 1 -15 19 7 19 6 2 -7 -11 -9
-14 -16 -7 -19 6 -3 5 -4 -2 -3 -7 2 -13 9 -14 17 0 14 24 49 34 49 3 0 -3
-10 -14 -22z m-9 -77 c3 -5 2 -12 -3 -15 -5 -3 -9 1 -9 9 0 17 3 19 12 6z"/>
<path d="M9277 3973 c-10 -9 -9 -23 1 -23 5 0 9 7 9 15 0 17 -1 18 -10 8z"/>
<path d="M735 3760 c-3 -5 -1 -10 4 -10 6 0 11 5 11 10 0 6 -2 10 -4 10 -3 0
-8 -4 -11 -10z"/>
<path d="M9265 3750 c-4 -6 -11 -7 -17 -4 -7 4 -8 2 -4 -5 6 -9 11 -9 22 0 14
11 18 19 10 19 -3 0 -8 -5 -11 -10z"/>
<path d="M9302 3719 c2 -6 8 -10 13 -10 5 0 11 4 13 10 2 6 -4 11 -13 11 -9 0
-15 -5 -13 -11z"/>
<path d="M793 3615 c0 -7 5 -13 11 -12 6 1 10 -6 8 -15 -3 -18 13 -25 22 -10
5 9 -2 22 -25 39 -13 10 -16 10 -16 -2z"/>
<path d="M9463 3595 c0 -8 4 -12 9 -9 4 3 8 9 8 15 0 5 -4 9 -8 9 -5 0 -9 -7
-9 -15z"/>
<path d="M832 3545 c3 -27 10 -25 15 5 2 11 -2 20 -7 20 -5 0 -9 -11 -8 -25z"/>
<path d="M838 3503 c7 -3 16 -2 19 1 4 3 -2 6 -13 5 -11 0 -14 -3 -6 -6z"/>
<path d="M9559 3503 c0 -5 -2 -18 -5 -30 -4 -24 2 -28 24 -14 11 7 11 9 -2 14
-9 4 -13 13 -10 22 3 8 3 15 0 15 -3 0 -6 -3 -7 -7z"/>
<path d="M836 3467 c3 -10 9 -15 12 -12 3 3 0 11 -7 18 -10 9 -11 8 -5 -6z"/>
<path d="M869 3469 c-5 -26 -7 -51 -3 -41 3 6 10 10 14 7 16 -10 20 13 5 25
-8 7 -15 11 -16 9z"/>
<path d="M9565 3440 c-3 -5 1 -10 9 -10 9 0 16 5 16 10 0 6 -4 10 -9 10 -6 0
-13 -4 -16 -10z"/>
<path d="M9578 3363 c7 -3 16 -2 19 1 4 3 -2 6 -13 5 -11 0 -14 -3 -6 -6z"/>
<path d="M946 3232 c-3 -5 1 -9 9 -9 8 0 12 4 9 9 -3 4 -7 8 -9 8 -2 0 -6 -4
-9 -8z"/>
<path d="M1020 3050 c-8 -5 -12 -12 -9 -15 4 -3 12 1 19 10 14 17 11 19 -10 5z"/>
<path d="M9430 2979 c0 -5 5 -7 10 -4 6 3 10 8 10 11 0 2 -4 4 -10 4 -5 0 -10
-5 -10 -11z"/>
<path d="M9410 2939 c0 -5 5 -7 10 -4 6 3 10 8 10 11 0 2 -4 4 -10 4 -5 0 -10
-5 -10 -11z"/>
<path d="M1093 2895 c0 -8 4 -12 9 -9 5 3 6 10 3 15 -9 13 -12 11 -12 -6z"/>
<path d="M1120 2903 c0 -7 4 -14 10 -18 5 -3 7 -12 3 -20 -3 -8 0 -15 7 -15 6
0 8 -5 5 -10 -4 -6 -3 -10 2 -9 20 3 27 -2 13 -11 -12 -8 -10 -10 10 -10 20 0
22 -2 10 -10 -9 -6 -10 -10 -3 -10 24 0 25 23 2 41 -13 10 -24 21 -24 26 0 4
-8 19 -18 33 -9 13 -17 19 -17 13z"/>
<path d="M9245 2740 c6 -30 16 -40 12 -12 -2 12 -6 24 -10 28 -3 4 -4 -4 -2
-16z"/>
<path d="M9185 2680 c-7 -11 22 -26 32 -16 4 3 -2 6 -13 6 -16 0 -17 2 -4 10
9 6 10 10 3 10 -6 0 -15 -5 -18 -10z"/>
<path d="M9115 2559 c-11 -16 -1 -19 13 -3 7 8 8 14 3 14 -5 0 -13 -5 -16 -11z"/>
<path d="M1330 2538 c0 -4 4 -8 10 -8 5 0 6 -8 3 -17 -6 -15 -5 -16 9 -3 9 8
12 17 7 18 -5 2 -7 7 -5 11 3 4 -1 8 -9 8 -8 0 -15 -4 -15 -9z"/>
<path d="M8956 2392 c-3 -5 1 -9 9 -9 8 0 12 4 9 9 -3 4 -7 8 -9 8 -2 0 -6 -4
-9 -8z"/>
<path d="M8921 2366 c-9 -10 -8 -15 2 -19 8 -3 13 3 13 14 0 23 0 23 -15 5z"/>
<path d="M8950 2359 c0 -5 5 -7 10 -4 6 3 10 8 10 11 0 2 -4 4 -10 4 -5 0 -10
-5 -10 -11z"/>
<path d="M1550 2280 c0 -5 5 -10 11 -10 5 0 7 5 4 10 -3 6 -8 10 -11 10 -2 0
-4 -4 -4 -10z"/>
<path d="M1550 2251 c0 -6 4 -13 10 -16 6 -3 7 1 4 9 -7 18 -14 21 -14 7z"/>
<path d="M1617 2204 c4 -12 3 -15 -5 -10 -8 5 -10 1 -5 -10 4 -11 8 -13 11 -6
2 7 8 9 14 6 6 -4 8 1 6 11 -1 10 -9 20 -16 23 -8 2 -10 -2 -5 -14z"/>
<path d="M8546 1981 c-15 -16 -15 -19 -2 -24 11 -4 13 -1 9 10 -4 11 -2 14 5
9 7 -4 12 -1 12 8 0 20 -3 20 -24 -3z"/>
<path d="M8510 1916 c7 -7 14 -6 21 1 9 9 7 12 -9 10 -14 -1 -18 -5 -12 -11z"/>
<path d="M1980 1819 c-11 -8 -9 -9 10 -3 22 6 23 5 12 -9 -9 -11 -10 -17 -2
-22 6 -4 14 -4 17 -1 4 3 1 6 -7 6 -9 0 -10 3 -1 13 18 23 -3 35 -29 16z"/>
<path d="M8365 1809 c-4 -6 -4 -13 -1 -16 3 -4 6 -1 6 6 0 8 6 11 16 7 8 -3
12 -2 9 4 -8 13 -22 13 -30 -1z"/>
<path d="M8335 1800 c-3 -5 -1 -10 4 -10 6 0 11 5 11 10 0 6 -2 10 -4 10 -3 0
-8 -4 -11 -10z"/>
<path d="M2253 1605 c0 -8 4 -15 9 -15 4 0 8 4 8 9 0 6 -4 12 -8 15 -5 3 -9
-1 -9 -9z"/>
<path d="M2379 1513 c-10 -11 -10 -14 -1 -9 7 4 12 2 12 -6 0 -9 3 -9 10 2 20
32 3 43 -21 13z"/>
<path d="M7920 1495 c-7 -9 -10 -18 -7 -22 4 -3 9 2 13 11 3 9 11 13 17 9 6
-3 7 -1 3 5 -9 15 -11 15 -26 -3z"/>
<path d="M7829 1441 c-3 -7 -14 -14 -24 -15 -11 -1 -29 -7 -40 -13 -17 -11
-18 -14 -5 -23 8 -5 20 -10 25 -10 6 0 3 5 -5 10 -8 5 -13 10 -10 11 3 0 12 2
20 4 8 3 24 6 35 8 11 2 19 7 18 11 -7 26 -10 30 -14 17z"/>
<path d="M2536 1403 c-6 -14 -5 -15 5 -6 7 7 10 15 7 18 -3 3 -9 -2 -12 -12z"/>
<path d="M7755 1360 c3 -5 8 -10 11 -10 2 0 4 5 4 10 0 6 -5 10 -11 10 -5 0
-7 -4 -4 -10z"/>
<path d="M2635 1340 c-3 -6 1 -7 9 -4 18 7 21 14 7 14 -6 0 -13 -4 -16 -10z"/>
<path d="M2690 1340 c0 -5 8 -10 17 -10 15 0 14 -2 -3 -16 -19 -15 -19 -15 1
-6 25 11 48 5 38 -11 -3 -7 -2 -8 2 -4 14 12 15 38 2 35 -7 -1 -22 3 -34 10
-15 8 -23 9 -23 2z"/>
<path d="M2830 1246 c0 -2 7 -7 16 -10 8 -3 12 -2 9 4 -6 10 -25 14 -25 6z"/>
<path d="M7390 1201 c0 -6 4 -13 10 -16 6 -3 7 1 4 9 -7 18 -14 21 -14 7z"/>
<path d="M7286 1166 c7 -19 20 -21 30 -5 4 8 9 7 15 -2 6 -10 9 -10 9 -2 0 17
-17 25 -25 13 -5 -8 -11 -7 -21 1 -12 10 -13 9 -8 -5z"/>
<path d="M7070 1060 c0 -5 5 -10 10 -10 6 0 10 5 10 10 0 6 -4 10 -10 10 -5 0
-10 -4 -10 -10z"/>
<path d="M3515 1000 c-3 -5 -1 -10 4 -10 6 0 11 5 11 10 0 6 -2 10 -4 10 -3 0
-8 -4 -11 -10z"/>
<path d="M6677 953 c-11 -11 -8 -20 7 -20 8 0 12 6 9 14 -6 15 -7 15 -16 6z"/>
<path d="M3793 925 c-3 -9 -3 -18 -1 -21 3 -3 8 4 11 16 6 23 -1 27 -10 5z"/>
<path d="M3715 920 c-3 -5 -1 -10 4 -10 6 0 11 5 11 10 0 6 -2 10 -4 10 -3 0
-8 -4 -11 -10z"/>
<path d="M6546 903 c-6 -14 -5 -15 5 -6 7 7 10 15 7 18 -3 3 -9 -2 -12 -12z"/>
<path d="M4211 844 c0 -11 3 -14 6 -6 3 7 2 16 -1 19 -3 4 -6 -2 -5 -13z"/>
<path d="M4256 847 c3 -10 9 -15 12 -12 3 3 0 11 -7 18 -10 9 -11 8 -5 -6z"/>
<path d="M4230 840 c0 -5 5 -10 11 -10 5 0 7 5 4 10 -3 6 -8 10 -11 10 -2 0
-4 -4 -4 -10z"/>
<path d="M4283 835 c0 -8 4 -12 9 -9 5 3 6 10 3 15 -9 13 -12 11 -12 -6z"/>
<path d="M4376 826 c7 -19 20 -21 30 -3 4 6 4 9 -1 5 -4 -4 -14 -3 -22 4 -11
8 -12 7 -7 -6z"/>
<path d="M4415 811 c-3 -7 -3 -16 0 -19 3 -3 5 0 5 6 0 7 9 12 20 12 11 0 20
4 20 8 0 14 -39 8 -45 -7z"/>
<path d="M4824 808 c-4 -6 -2 -14 4 -16 7 -2 9 -9 6 -14 -4 -6 -2 -8 4 -5 5 4
8 16 5 27 -6 23 -9 24 -19 8z"/>
<path d="M4667 799 c7 -9 10 -19 6 -22 -3 -4 -2 -7 3 -7 5 0 15 9 22 20 7 12
8 20 2 20 -5 0 -10 -5 -10 -11 0 -8 -6 -7 -17 2 -16 12 -17 12 -6 -2z"/>
<path d="M5794 796 c1 -8 5 -18 8 -22 4 -3 5 1 4 10 -1 8 -5 18 -8 22 -4 3 -5
-1 -4 -10z"/>
<path d="M4935 790 c-4 -6 -11 -8 -16 -5 -5 4 -9 1 -9 -4 0 -16 16 -13 30 4 7
8 10 15 7 15 -3 0 -9 -5 -12 -10z"/>
<path d="M4996 791 c-3 -4 1 -17 9 -27 15 -18 15 -18 8 1 -6 18 -5 19 13 5 19
-14 19 -14 0 8 -21 25 -23 25 -30 13z"/>
<path d="M5427 783 c3 -7 6 -13 8 -13 1 0 7 6 13 13 8 10 6 13 -7 13 -11 0
-17 -6 -14 -13z"/>
<path d="M4535 780 c-3 -6 1 -7 9 -4 18 7 21 14 7 14 -6 0 -13 -4 -16 -10z"/>
<path d="M5202 766 c7 -8 15 -12 17 -11 5 6 -10 25 -20 25 -5 0 -4 -6 3 -14z"/>
<path d="M5455 740 c-3 -5 -1 -10 4 -10 6 0 11 5 11 10 0 6 -2 10 -4 10 -3 0
-8 -4 -11 -10z"/>
</g>
</svg>
